<svg xmlns="http://www.w3.org/2000/svg" xmlns:xlink="http://www.w3.org/1999/xlink" contentStyleType="text/css" data-diagram-type="DESCRIPTION" height="710px" preserveAspectRatio="none" style="width:398px;height:710px;background:#FFFFFF;" version="1.1" viewBox="0 0 398 710" width="398px" zoomAndPan="magnify"><?plantuml 1.2026.6?><defs/><g><g class="title" data-source-line="18"><text fill="#000000" font-family="Arial" font-size="14" font-weight="700" lengthAdjust="spacing" textLength="156.2217" x="117.6182" y="22.9951">USE CASE DIAGRAM</text><text fill="#000000" font-family="Arial" font-size="14" font-weight="700" lengthAdjust="spacing" textLength="371.458" x="10" y="39.292">Mbonea Fee Tracking &amp; Receipt System (FTRS)</text></g><rect fill="#FFFFCC" height="16.6406" rx="2.5" ry="2.5" style="stroke:#FFDD88;stroke-width:3;" width="371.2305" x="8.6138" y="56.5938"/><text fill="#000000" font-family="monospace" font-size="10" lengthAdjust="spacing" textLength="355.21" x="15.6138" y="67.2344">Please&#160;use&#160;'!option&#160;handwritten&#160;true'&#160;to&#160;enable&#160;handwritten</text><!--cluster FTRS System--><g class="cluster" data-qualified-name="FTRS System" data-source-line="26" id="ent0004"><rect fill="#FFFFFF" height="614" rx="2.5" ry="2.5" style="stroke:#181818;stroke-width:1;" width="213.85" x="70.7738" y="82.2344"/><text fill="#000000" font-family="Arial" font-size="13" font-weight="700" lengthAdjust="spacing" textLength="95.7988" x="129.7994" y="96.3013">FTRS System</text></g><!--entity UC1--><g class="entity" data-qualified-name="FTRS System.UC1" data-source-line="27" id="ent0005"><ellipse cx="177.6912" cy="132.2359" fill="#FFFFFF" rx="68.9074" ry="16.1815" style="stroke:#C00000;stroke-width:0.5;"/><text fill="#000000" font-family="Arial" font-size="13" lengthAdjust="spacing" textLength="107.9355" x="123.7234" y="136.3023">Register student</text></g><!--entity UC2--><g class="entity" data-qualified-name="FTRS System.UC2" data-source-line="28" id="ent0006"><ellipse cx="177.6896" cy="354.2355" fill="#FFFFFF" rx="85.4559" ry="19.4912" style="stroke:#C00000;stroke-width:0.5;"/><text fill="#000000" font-family="Arial" font-size="13" lengthAdjust="spacing" textLength="146.5293" x="104.425" y="358.302">Manage fee structures</text></g><!--entity UC3--><g class="entity" data-qualified-name="FTRS System.UC3" data-source-line="29" id="ent0007"><ellipse cx="177.6936" cy="278.2323" fill="#FFFFFF" rx="68.8398" ry="16.168" style="stroke:#C00000;stroke-width:0.5;"/><text fill="#000000" font-family="Arial" font-size="13" lengthAdjust="spacing" textLength="107.7705" x="123.8083" y="282.2987">Record payment</text></g><!--entity UC4--><g class="entity" data-qualified-name="FTRS System.UC4" data-source-line="30" id="ent0008"><ellipse cx="177.6951" cy="588.2306" fill="#FFFFFF" rx="70.2314" ry="16.4463" style="stroke:#C00000;stroke-width:0.5;"/><text fill="#000000" font-family="Arial" font-size="13" lengthAdjust="spacing" textLength="111.1538" x="122.1182" y="592.2971">View fee balance</text></g><!--entity UC5--><g class="entity" data-qualified-name="FTRS System.UC5" data-source-line="31" id="ent0009"><ellipse cx="177.6985" cy="662.2353" fill="#FFFFFF" rx="77.6547" ry="17.9309" style="stroke:#C00000;stroke-width:0.5;"/><text fill="#000000" font-family="Arial" font-size="13" lengthAdjust="spacing" textLength="128.7178" x="113.3396" y="666.3017">Receive notification</text></g><!--entity UC6--><g class="entity" data-qualified-name="FTRS System.UC6" data-source-line="32" id="ent0010"><ellipse cx="177.6941" cy="205.2385" fill="#FFFFFF" rx="70.4204" ry="16.4841" style="stroke:#C00000;stroke-width:0.5;"/><text fill="#000000" font-family="Arial" font-size="13" lengthAdjust="spacing" textLength="111.6108" x="121.8887" y="209.3049">Generate reports</text></g><!--entity UC7--><g class="entity" data-qualified-name="FTRS System.UC7" data-source-line="33" id="ent0011"><ellipse cx="177.6901" cy="434.2296" fill="#FFFFFF" rx="90.9263" ry="20.5853" style="stroke:#C00000;stroke-width:0.5;"/><text fill="#000000" font-family="Arial" font-size="13" lengthAdjust="spacing" textLength="158.7422" x="98.319" y="438.296">Manage system settings</text></g><!--entity UC8--><g class="entity" data-qualified-name="FTRS System.UC8" data-source-line="34" id="ent0012"><ellipse cx="177.6913" cy="513.2319" fill="#FFFFFF" rx="80.6375" ry="18.5275" style="stroke:#C00000;stroke-width:0.5;"/><text fill="#000000" font-family="Arial" font-size="13" lengthAdjust="spacing" textLength="135.5923" x="109.8951" y="517.2983">Configure SMS/Email</text></g><!--entity Admin--><g class="entity" data-qualified-name="Admin" data-source-line="22" id="ent0001"><ellipse cx="33.1926" cy="241.6044" fill="#F1F1F1" rx="8" ry="8" style="stroke:#C00000;stroke-width:0.5;"/><path d="M33.1926,249.6044 L33.1926,276.6044 M20.1926,257.6044 L46.1926,257.6044 M33.1926,276.6044 L20.1926,291.6044 M33.1926,276.6044 L46.1926,291.6044" fill="none" style="stroke:#C00000;stroke-width:0.5;"/><text fill="#000000" font-family="Arial" font-size="13" lengthAdjust="spacing" textLength="43.1577" x="11.6138" y="305.1713">School</text><text fill="#000000" font-family="Arial" font-size="13" lengthAdjust="spacing" textLength="41.6597" x="11.6138" y="320.3041">Admin</text></g><!--entity Parent--><g class="entity" data-qualified-name="Parent" data-source-line="23" id="ent0002"><ellipse cx="33.1962" cy="596.1644" fill="#F1F1F1" rx="8" ry="8" style="stroke:#C00000;stroke-width:0.5;"/><path d="M33.1962,604.1644 L33.1962,631.1644 M20.1962,612.1644 L46.1962,612.1644 M33.1962,631.1644 L20.1962,646.1644 M33.1962,631.1644 L46.1962,646.1644" fill="none" style="stroke:#C00000;stroke-width:0.5;"/><text fill="#000000" font-family="Arial" font-size="13" lengthAdjust="spacing" textLength="42.4849" x="11.9538" y="659.7313">Parent</text></g><!--entity Super--><g class="entity" data-qualified-name="Super" data-source-line="24" id="ent0003"><ellipse cx="33.1936" cy="384.6044" fill="#F1F1F1" rx="8" ry="8" style="stroke:#C00000;stroke-width:0.5;"/><path d="M33.1936,392.6044 L33.1936,419.6044 M20.1936,400.6044 L46.1936,400.6044 M33.1936,419.6044 L20.1936,434.6044 M33.1936,419.6044 L46.1936,434.6044" fill="none" style="stroke:#C00000;stroke-width:0.5;"/><text fill="#000000" font-family="Arial" font-size="13" lengthAdjust="spacing" textLength="38.0859" x="12.3638" y="448.1713">Super</text><text fill="#000000" font-family="Arial" font-size="13" lengthAdjust="spacing" textLength="41.6597" x="12.3638" y="463.3041">Admin</text></g><!--link Admin to UC1--><g class="link" data-entity-1="ent0001" data-entity-2="ent0005" data-link-type="dependency" data-source-line="37" id="lnk13"><path d="M46.1438,232.6444 C53.9738,202.7744 62.7738,169.2344 62.7738,169.2344 C62.7738,169.2344 98.4484,157.6492 131.1384,147.0292" fill="none" id="Admin-to-UC1" style="stroke:#181818;stroke-width:1;"/><polygon fill="#181818" points="135.8938,145.4844,126.0982,144.4609,131.1384,147.0292,128.57,152.0694,135.8938,145.4844" style="stroke:#181818;stroke-width:1;stroke-linejoin:miter;stroke-miterlimit:10;"/></g><!--link Admin to UC2--><g class="link" data-entity-1="ent0001" data-entity-2="ent0006" data-link-type="dependency" data-source-line="38" id="lnk14"><path d="M55.2638,304.7744 C59.5438,310.1744 62.7738,314.2344 62.7738,314.2344 C62.7738,314.2344 93.6062,325.0577 124.9862,336.0777" fill="none" id="Admin-to-UC2" style="stroke:#181818;stroke-width:1;"/><polygon fill="#181818" points="129.7038,337.7344,122.5375,330.9783,124.9862,336.0777,119.8868,338.5263,129.7038,337.7344" style="stroke:#181818;stroke-width:1;stroke-linejoin:miter;stroke-miterlimit:10;"/></g><!--link Admin to UC3--><g class="link" data-entity-1="ent0001" data-entity-2="ent0007" data-link-type="dependency" data-source-line="39" id="lnk15"><path d="M55.2238,278.2344 C69.4638,278.2344 84.1638,278.2344 103.5538,278.2344" fill="none" id="Admin-to-UC3" style="stroke:#181818;stroke-width:1;"/><polygon fill="#181818" points="108.5538,278.2344,99.5538,274.2344,103.5538,278.2344,99.5538,282.2344,108.5538,278.2344" style="stroke:#181818;stroke-width:1;stroke-linejoin:miter;stroke-miterlimit:10;"/></g><!--link Admin to UC4--><g class="link" data-entity-1="ent0001" data-entity-2="ent0008" data-link-type="dependency" data-source-line="40" id="lnk16"><path d="M46.1638,323.6044 C50.6938,340.7644 54.7738,356.2344 54.7738,356.2344 C54.7738,356.2344 62.7738,552.2344 62.7738,552.2344 C62.7738,552.2344 97.3763,563.1675 129.8363,573.4275" fill="none" id="Admin-to-UC4" style="stroke:#181818;stroke-width:1;"/><polygon fill="#181818" points="134.6038,574.9344,127.2278,568.4079,129.8363,573.4275,124.8167,576.0359,134.6038,574.9344" style="stroke:#181818;stroke-width:1;stroke-linejoin:miter;stroke-miterlimit:10;"/></g><!--link Admin to UC6--><g class="link" data-entity-1="ent0001" data-entity-2="ent0010" data-link-type="dependency" data-source-line="41" id="lnk17"><path d="M55.2638,251.6944 C59.5438,246.2944 62.7738,242.2344 62.7738,242.2344 C62.7738,242.2344 97.9184,230.8191 130.4884,220.2391" fill="none" id="Admin-to-UC6" style="stroke:#181818;stroke-width:1;"/><polygon fill="#181818" points="135.2438,218.6944,125.4483,217.6706,130.4884,220.2391,127.9198,225.2792,135.2438,218.6944" style="stroke:#181818;stroke-width:1;stroke-linejoin:miter;stroke-miterlimit:10;"/></g><!--link Parent to UC4--><g class="link" data-entity-1="ent0002" data-entity-2="ent0008" data-link-type="dependency" data-source-line="43" id="lnk18"><path d="M54.9138,619.8544 C74.3638,614.8044 99.3344,608.3216 124.5844,601.7616" fill="none" id="Parent-to-UC4" style="stroke:#181818;stroke-width:1;"/><polygon fill="#181818" points="129.4238,600.5044,119.7071,598.896,124.5844,601.7616,121.7188,606.6389,129.4238,600.5044" style="stroke:#181818;stroke-width:1;stroke-linejoin:miter;stroke-miterlimit:10;"/></g><!--link Parent to UC5--><g class="link" data-entity-1="ent0002" data-entity-2="ent0009" data-link-type="dependency" data-source-line="44" id="lnk19"><path d="M54.9138,630.6144 C73.2138,635.3644 95.8239,641.2389 120.0339,647.5189" fill="none" id="Parent-to-UC5" style="stroke:#181818;stroke-width:1;"/><polygon fill="#181818" points="124.8738,648.7744,117.1664,642.6427,120.0339,647.5189,115.1577,650.3864,124.8738,648.7744" style="stroke:#181818;stroke-width:1;stroke-linejoin:miter;stroke-miterlimit:10;"/></g><!--link Super to UC1--><g class="link" data-entity-1="ent0003" data-entity-2="ent0005" data-link-type="dependency" data-source-line="46" id="lnk20"><path d="M46.1638,375.8644 C50.6938,358.7044 54.7738,343.2344 54.7738,343.2344 C54.7738,343.2344 62.7738,169.2344 62.7738,169.2344 C62.7738,169.2344 98.4484,157.6492 131.1384,147.0292" fill="none" id="Super-to-UC1" style="stroke:#181818;stroke-width:1;"/><polygon fill="#181818" points="135.8938,145.4844,126.0982,144.4609,131.1384,147.0292,128.57,152.0694,135.8938,145.4844" style="stroke:#181818;stroke-width:1;stroke-linejoin:miter;stroke-miterlimit:10;"/></g><!--link Super to UC2--><g class="link" data-entity-1="ent0003" data-entity-2="ent0006" data-link-type="dependency" data-source-line="47" id="lnk21"><path d="M54.3538,401.4844 C59.0838,396.8544 62.7738,393.2344 62.7738,393.2344 C62.7738,393.2344 92.8428,382.9324 123.9828,372.2824" fill="none" id="Super-to-UC2" style="stroke:#181818;stroke-width:1;"/><polygon fill="#181818" points="128.7138,370.6644,118.9036,369.792,123.9828,372.2824,121.4924,377.3616,128.7138,370.6644" style="stroke:#181818;stroke-width:1;stroke-linejoin:miter;stroke-miterlimit:10;"/></g><!--link Super to UC3--><g class="link" data-entity-1="ent0003" data-entity-2="ent0007" data-link-type="dependency" data-source-line="48" id="lnk22"><path d="M46.4738,375.6644 C54.2238,346.9344 62.7738,315.2344 62.7738,315.2344 C62.7738,315.2344 98.4484,303.6492 131.1384,293.0292" fill="none" id="Super-to-UC3" style="stroke:#181818;stroke-width:1;"/><polygon fill="#181818" points="135.8938,291.4844,126.0982,290.4609,131.1384,293.0292,128.57,298.0694,135.8938,291.4844" style="stroke:#181818;stroke-width:1;stroke-linejoin:miter;stroke-miterlimit:10;"/></g><!--link Super to UC4--><g class="link" data-entity-1="ent0003" data-entity-2="ent0008" data-link-type="dependency" data-source-line="49" id="lnk23"><path d="M44.1038,466.6844 C52.3638,504.5244 62.7738,552.2344 62.7738,552.2344 C62.7738,552.2344 97.3763,563.1675 129.8363,573.4275" fill="none" id="Super-to-UC4" style="stroke:#181818;stroke-width:1;"/><polygon fill="#181818" points="134.6038,574.9344,127.2278,568.4079,129.8363,573.4275,124.8167,576.0359,134.6038,574.9344" style="stroke:#181818;stroke-width:1;stroke-linejoin:miter;stroke-miterlimit:10;"/></g><!--link Super to UC5--><g class="link" data-entity-1="ent0003" data-entity-2="ent0009" data-link-type="dependency" data-source-line="50" id="lnk24"><path d="M40.5938,466.6244 C46.6338,509.4844 54.7738,567.2344 54.7738,567.2344 C54.7738,567.2344 62.7738,624.2344 62.7738,624.2344 C62.7738,624.2344 95.3409,635.0915 127.2509,645.7415" fill="none" id="Super-to-UC5" style="stroke:#181818;stroke-width:1;"/><polygon fill="#181818" points="131.9938,647.3244,124.723,640.6809,127.2509,645.7415,122.1904,648.2694,131.9938,647.3244" style="stroke:#181818;stroke-width:1;stroke-linejoin:miter;stroke-miterlimit:10;"/></g><!--link Super to UC6--><g class="link" data-entity-1="ent0003" data-entity-2="ent0010" data-link-type="dependency" data-source-line="51" id="lnk25"><path d="M46.1638,375.8644 C50.6938,358.7044 54.7738,343.2344 54.7738,343.2344 C54.7738,343.2344 62.7738,242.2344 62.7738,242.2344 C62.7738,242.2344 97.9184,230.8191 130.4884,220.2391" fill="none" id="Super-to-UC6" style="stroke:#181818;stroke-width:1;"/><polygon fill="#181818" points="135.2438,218.6944,125.4483,217.6706,130.4884,220.2391,127.9198,225.2792,135.2438,218.6944" style="stroke:#181818;stroke-width:1;stroke-linejoin:miter;stroke-miterlimit:10;"/></g><!--link Super to UC7--><g class="link" data-entity-1="ent0003" data-entity-2="ent0011" data-link-type="dependency" data-source-line="52" id="lnk26"><path d="M54.3038,423.0744 C64.8238,424.0244 73.4844,424.8201 87.8444,426.1301" fill="none" id="Super-to-UC7" style="stroke:#181818;stroke-width:1;"/><polygon fill="#181818" points="92.8238,426.5844,84.2244,421.7833,87.8444,426.1301,83.4976,429.7502,92.8238,426.5844" style="stroke:#181818;stroke-width:1;stroke-linejoin:miter;stroke-miterlimit:10;"/></g><!--link Super to UC8--><g class="link" data-entity-1="ent0003" data-entity-2="ent0012" data-link-type="dependency" data-source-line="53" id="lnk27"><path d="M54.5038,459.6144 C59.1638,468.4144 62.7738,475.2344 62.7738,475.2344 C62.7738,475.2344 94.3305,485.7628 125.9405,496.3028" fill="none" id="Super-to-UC8" style="stroke:#181818;stroke-width:1;"/><polygon fill="#181818" points="130.6838,497.8844,123.4112,491.2429,125.9405,496.3028,120.8806,498.8321,130.6838,497.8844" style="stroke:#181818;stroke-width:1;stroke-linejoin:miter;stroke-miterlimit:10;"/></g><?plantuml-src bL8xRzim4DxvAmuAKBH3qCIlP2gWkd7GmKLX9PsodAMJJ9WY1V9Kmmtwtqj9baCsMQ91uFUuu_4ZtLxg1YtMu7POc8FK5PIe70btLdQeYuELpAHVQGMLs2fU6Sq_i2P8hKJrjfx9FmJNqq1KKXCV6uB6g6C70asRWXmrCBiAI8jwtv7Ja6mTvUW8dWN0LyptbJMjBfP66Gk7dMJgU6CBiWDtiRpgFizsKmtSLlb2yJVeYZbx_laTjO8bAuB7x0wMgVzz-vxURzBrarvlZIQ45H4yME_jClu06yf9DWpPqJ7Ly77riCa-2Q6eP603LbOxXa9QobaQBSGmK9BbEsFKaqwBMke4q46_6kMVQ4bppm_BSrtRa0tBUaA8hZ_goW-UT1ESnadWee-k3s0CEDbG9RrgmN5RZDiyBgz3pnerLWIbFwnZs-RSMd8duoHkbljWeS5Z_T9g6Zf-IJhqZRQeKETqyip-wqBoD_ddmhAKENPPdNppq7TFcYpw0rbgZELneiKRexlXGXmn-viQdJUXSsbqAIj_CiZMsUUx6gKwsMwxXz2739UNN_fmGZI9q3H2imWjX1WkyAn6S2v4Vu7dNK8qYT0qGhC8pIEqYD1DX6x5Fm00?></g></svg>