<svg xmlns="http://www.w3.org/2000/svg" xmlns:xlink="http://www.w3.org/1999/xlink" contentStyleType="text/css" data-diagram-type="ACTIVITY" height="574px" preserveAspectRatio="none" style="width:467px;height:574px;background:#FFFFFF;" version="1.1" viewBox="0 0 467 574" width="467px" zoomAndPan="magnify"><?plantuml 1.2026.6?><defs/><g><g class="title" data-source-line="9"><text fill="#000000" font-family="Arial" font-size="14" font-weight="700" lengthAdjust="spacing" textLength="425.168" x="20" y="32.9951">ACTIVITY DIAGRAM &#8212; School Admin Records Payment</text></g><ellipse cx="233.9913" cy="62.2969" fill="#222222" rx="10" ry="10" style="stroke:#222222;stroke-width:1;"/><rect fill="#FFFFFF" height="35.1328" rx="12.5" ry="12.5" style="stroke:#C00000;stroke-width:0.5;" width="158.5249" x="154.7289" y="92.2969"/><text fill="#000000" font-family="Arial" font-size="13" lengthAdjust="spacing" textLength="138.5249" x="164.7289" y="114.3638">Login (School Admin)</text><rect fill="#FFFFFF" height="50.2656" rx="12.5" ry="12.5" style="stroke:#C00000;stroke-width:0.5;" width="183.395" x="142.2938" y="147.4297"/><text fill="#000000" font-family="Arial" font-size="13" lengthAdjust="spacing" textLength="144.3774" x="152.2938" y="169.4966">Enter payment details</text><text fill="#000000" font-family="Arial" font-size="13" lengthAdjust="spacing" textLength="163.395" x="152.2938" y="184.6294">(student, amount, mode)</text><polygon fill="#FFFFFF" points="197.6669,217.6953,270.3158,217.6953,282.3158,229.6953,270.3158,241.6953,197.6669,241.6953,185.6669,229.6953,197.6669,217.6953" style="stroke:#C00000;stroke-width:0.5;stroke-linejoin:miter;stroke-miterlimit:10;"/><text fill="#000000" font-family="Arial" font-size="13" lengthAdjust="spacing" textLength="72.6489" x="197.6669" y="234.1958">Valid data?</text><text fill="#000000" font-family="Arial" font-size="13" lengthAdjust="spacing" textLength="22.4644" x="163.2025" y="226.6294">yes</text><text fill="#000000" font-family="Arial" font-size="13" lengthAdjust="spacing" textLength="16.1929" x="282.3158" y="226.6294">no</text><rect fill="#FFFFFF" height="50.2656" rx="12.5" ry="12.5" style="stroke:#C00000;stroke-width:0.5;" width="160.1245" x="58.2253" y="251.6953"/><text fill="#000000" font-family="Arial" font-size="13" lengthAdjust="spacing" textLength="140.1245" x="68.2253" y="273.7622">Save payment record</text><text fill="#000000" font-family="Arial" font-size="13" lengthAdjust="spacing" textLength="101.2769" x="68.2253" y="288.895">(create receipt)</text><rect fill="#FFFFFF" height="35.1328" rx="12.5" ry="12.5" style="stroke:#C00000;stroke-width:0.5;" width="176.2222" x="50.1765" y="321.9609"/><text fill="#000000" font-family="Arial" font-size="13" lengthAdjust="spacing" textLength="156.2222" x="60.1765" y="344.0278">Update student balance</text><rect fill="#FFFFFF" height="35.1328" rx="12.5" ry="12.5" style="stroke:#C00000;stroke-width:0.5;" width="143.9824" x="66.2964" y="377.0938"/><text fill="#000000" font-family="Arial" font-size="13" lengthAdjust="spacing" textLength="123.9824" x="76.2964" y="399.1606">Trigger notification</text><rect fill="#FFFFFF" height="50.2656" rx="12.5" ry="12.5" style="stroke:#C00000;stroke-width:0.5;" width="153.1675" x="61.7039" y="432.2266"/><text fill="#000000" font-family="Arial" font-size="13" lengthAdjust="spacing" textLength="133.1675" x="71.7039" y="454.2935">Send SMS and email</text><text fill="#000000" font-family="Arial" font-size="13" lengthAdjust="spacing" textLength="60.0806" x="71.7039" y="469.4263">to parent</text><rect fill="#FFFFFF" height="35.1328" rx="12.5" ry="12.5" style="stroke:#C00000;stroke-width:0.5;" width="166.5928" x="246.3987" y="251.6953"/><text fill="#000000" font-family="Arial" font-size="13" lengthAdjust="spacing" textLength="146.5928" x="256.3987" y="273.7622">Display error message</text><polygon fill="#FFFFFF" points="233.9913,488.4922,245.9913,500.4922,233.9913,512.4922,221.9913,500.4922,233.9913,488.4922" style="stroke:#C00000;stroke-width:0.5;stroke-linejoin:miter;stroke-miterlimit:10;"/><ellipse cx="233.9913" cy="543.4922" fill="none" rx="11" ry="11" style="stroke:#222222;stroke-width:1;"/><ellipse cx="233.9913" cy="543.4922" fill="#222222" rx="6" ry="6" style="stroke:#222222;stroke-width:1;"/><line style="stroke:#C00000;stroke-width:1;" x1="233.9913" x2="233.9913" y1="72.2969" y2="92.2969"/><polygon fill="#C00000" points="229.9913,82.2969,233.9913,92.2969,237.9913,82.2969,233.9913,86.2969" style="stroke:#C00000;stroke-width:1;stroke-linejoin:miter;stroke-miterlimit:10;"/><line style="stroke:#C00000;stroke-width:1;" x1="233.9913" x2="233.9913" y1="127.4297" y2="147.4297"/><polygon fill="#C00000" points="229.9913,137.4297,233.9913,147.4297,237.9913,137.4297,233.9913,141.4297" style="stroke:#C00000;stroke-width:1;stroke-linejoin:miter;stroke-miterlimit:10;"/><line style="stroke:#C00000;stroke-width:1;" x1="138.2876" x2="138.2876" y1="301.9609" y2="321.9609"/><polygon fill="#C00000" points="134.2876,311.9609,138.2876,321.9609,142.2876,311.9609,138.2876,315.9609" style="stroke:#C00000;stroke-width:1;stroke-linejoin:miter;stroke-miterlimit:10;"/><line style="stroke:#C00000;stroke-width:1;" x1="138.2876" x2="138.2876" y1="357.0938" y2="377.0938"/><polygon fill="#C00000" points="134.2876,367.0938,138.2876,377.0938,142.2876,367.0938,138.2876,371.0938" style="stroke:#C00000;stroke-width:1;stroke-linejoin:miter;stroke-miterlimit:10;"/><line style="stroke:#C00000;stroke-width:1;" x1="138.2876" x2="138.2876" y1="412.2266" y2="432.2266"/><polygon fill="#C00000" points="134.2876,422.2266,138.2876,432.2266,142.2876,422.2266,138.2876,426.2266" style="stroke:#C00000;stroke-width:1;stroke-linejoin:miter;stroke-miterlimit:10;"/><line style="stroke:#C00000;stroke-width:1;" x1="185.6669" x2="138.2876" y1="229.6953" y2="229.6953"/><line style="stroke:#C00000;stroke-width:1;" x1="138.2876" x2="138.2876" y1="229.6953" y2="251.6953"/><polygon fill="#C00000" points="134.2876,241.6953,138.2876,251.6953,142.2876,241.6953,138.2876,245.6953" style="stroke:#C00000;stroke-width:1;stroke-linejoin:miter;stroke-miterlimit:10;"/><line style="stroke:#C00000;stroke-width:1;" x1="282.3158" x2="329.6951" y1="229.6953" y2="229.6953"/><line style="stroke:#C00000;stroke-width:1;" x1="329.6951" x2="329.6951" y1="229.6953" y2="251.6953"/><polygon fill="#C00000" points="325.6951,241.6953,329.6951,251.6953,333.6951,241.6953,329.6951,245.6953" style="stroke:#C00000;stroke-width:1;stroke-linejoin:miter;stroke-miterlimit:10;"/><line style="stroke:#C00000;stroke-width:1;" x1="138.2876" x2="138.2876" y1="482.4922" y2="500.4922"/><line style="stroke:#C00000;stroke-width:1;" x1="138.2876" x2="221.9913" y1="500.4922" y2="500.4922"/><polygon fill="#C00000" points="211.9913,496.4922,221.9913,500.4922,211.9913,504.4922,215.9913,500.4922" style="stroke:#C00000;stroke-width:1;stroke-linejoin:miter;stroke-miterlimit:10;"/><line style="stroke:#C00000;stroke-width:1;" x1="329.6951" x2="329.6951" y1="286.8281" y2="500.4922"/><line style="stroke:#C00000;stroke-width:1;" x1="329.6951" x2="245.9913" y1="500.4922" y2="500.4922"/><polygon fill="#C00000" points="255.9913,496.4922,245.9913,500.4922,255.9913,504.4922,251.9913,500.4922" style="stroke:#C00000;stroke-width:1;stroke-linejoin:miter;stroke-miterlimit:10;"/><line style="stroke:#C00000;stroke-width:1;" x1="233.9913" x2="233.9913" y1="197.6953" y2="217.6953"/><polygon fill="#C00000" points="229.9913,207.6953,233.9913,217.6953,237.9913,207.6953,233.9913,211.6953" style="stroke:#C00000;stroke-width:1;stroke-linejoin:miter;stroke-miterlimit:10;"/><line style="stroke:#C00000;stroke-width:1;" x1="233.9913" x2="233.9913" y1="512.4922" y2="532.4922"/><polygon fill="#C00000" points="229.9913,522.4922,233.9913,532.4922,237.9913,522.4922,233.9913,526.4922" style="stroke:#C00000;stroke-width:1;stroke-linejoin:miter;stroke-miterlimit:10;"/><?plantuml-src RPB1QW8n48RlUOg1NXHwQEbD3sMhRH5gAQuL2bx6pUmwc4sMP5Gi7leGVS8-IMUrY0Lp6JB_dsz-XgGL-mOZrf2MQCEMVGKbkaGcdHHB9QwTF0KlhrWJP97HNTPp_YIulJiJiq9umx9x2D5I70GN8bmDRjfpmTKoZfw5ms9rYQFjAeQrjqVVTibo7ZQBCMp_Zp72uZJsO3gQZQOVC1nbpvDi33zVtv0Non0SPBPc3nCgD6M2DzpLvCMO_RcyDqamYkczX4hDdNEjspUzHoyKeJc-rQK8iajptqcojjgv1gmrjjOwMD87N49dXeujM1Iyxu8iIR4xIbq3qCjnGoTQF2HJM149XTexSIDAKUTxOzlUtnnOe4DVq46QHgugJUM3SCa52WT_47Bo5l9n3gYLQeqwzn9qNbH4tv3-0EZuS4WovDGut07fQYFKb19MYbS2bxgJq9XV?></g></svg>