<svg xmlns="http://www.w3.org/2000/svg" xmlns:xlink="http://www.w3.org/1999/xlink" contentStyleType="text/css" data-diagram-type="ACTIVITY" height="799px" preserveAspectRatio="none" style="width:1144px;height:799px;background:#FFFFFF;" version="1.1" viewBox="0 0 1144 799" width="1144px" zoomAndPan="magnify"><?plantuml 1.2026.6?><defs/><g><g class="title" data-source-line="9"><text fill="#000000" font-family="Arial" font-size="14" font-weight="700" lengthAdjust="spacing" textLength="406.5605" x="367.722" y="32.9951">ACTIVITY DIAGRAM &#8212; Parent Bank Payment Upload</text></g><rect fill="none" height="15.1328" style="stroke:none;stroke-width:1;" width="1097.0046" x="20" y="53.8628"/><ellipse cx="512.9023" cy="83.9956" fill="#222222" rx="10" ry="10" style="stroke:#222222;stroke-width:1;"/><rect fill="#FFFFFF" height="35.1328" rx="12.5" ry="12.5" style="stroke:#C00000;stroke-width:0.5;" width="191.3613" x="417.2216" y="113.9956"/><text fill="#000000" font-family="Arial" font-size="13" lengthAdjust="spacing" textLength="171.3613" x="427.2216" y="136.0625">Login (phone + password)</text><rect fill="#FFFFFF" height="35.1328" rx="12.5" ry="12.5" style="stroke:#C00000;stroke-width:0.5;" width="166.1484" x="429.8281" y="169.1284"/><text fill="#000000" font-family="Arial" font-size="13" lengthAdjust="spacing" textLength="146.1484" x="439.8281" y="191.1953">View child fee balance</text><rect fill="#FFFFFF" height="50.2656" rx="12.5" ry="12.5" style="stroke:#C00000;stroke-width:0.5;" width="142.624" x="441.5903" y="224.2612"/><text fill="#000000" font-family="Arial" font-size="13" lengthAdjust="spacing" textLength="122.624" x="451.5903" y="246.3281">Pay at school bank</text><text fill="#000000" font-family="Arial" font-size="13" lengthAdjust="spacing" textLength="98.6045" x="451.5903" y="261.4609">(NMB or CRDB)</text><rect fill="#FFFFFF" height="35.1328" rx="12.5" ry="12.5" style="stroke:#C00000;stroke-width:0.5;" width="180.71" x="422.5473" y="294.5269"/><text fill="#000000" font-family="Arial" font-size="13" lengthAdjust="spacing" textLength="160.71" x="432.5473" y="316.5938">Upload bank receipt PDF</text><polygon fill="#FFFFFF" points="474.1784,349.6597,551.6262,349.6597,563.6262,361.6597,551.6262,373.6597,474.1784,373.6597,462.1784,361.6597,474.1784,349.6597" style="stroke:#C00000;stroke-width:0.5;stroke-linejoin:miter;stroke-miterlimit:10;"/><text fill="#000000" font-family="Arial" font-size="13" lengthAdjust="spacing" textLength="77.4478" x="474.1784" y="366.1602">Valid proof?</text><text fill="#000000" font-family="Arial" font-size="13" lengthAdjust="spacing" textLength="22.4644" x="439.7141" y="358.5938">yes</text><text fill="#000000" font-family="Arial" font-size="13" lengthAdjust="spacing" textLength="16.1929" x="563.6262" y="358.5938">no</text><rect fill="#FFFFFF" height="50.2656" rx="12.5" ry="12.5" style="stroke:#C00000;stroke-width:0.5;" width="174.5083" x="212.9462" y="393.6597"/><text fill="#000000" font-family="Arial" font-size="13" lengthAdjust="spacing" textLength="154.5083" x="222.9462" y="415.7266">System verifies amount</text><text fill="#000000" font-family="Arial" font-size="13" lengthAdjust="spacing" textLength="80.3804" x="222.9462" y="430.8594">and account</text><polygon fill="#FFFFFF" points="248.4575,463.9253,351.9433,463.9253,363.9433,475.9253,351.9433,487.9253,248.4575,487.9253,236.4575,475.9253,248.4575,463.9253" style="stroke:#C00000;stroke-width:0.5;stroke-linejoin:miter;stroke-miterlimit:10;"/><text fill="#000000" font-family="Arial" font-size="13" lengthAdjust="spacing" textLength="103.4858" x="248.4575" y="480.4258">Auto-approved?</text><text fill="#000000" font-family="Arial" font-size="13" lengthAdjust="spacing" textLength="22.4644" x="213.9931" y="472.8594">yes</text><text fill="#000000" font-family="Arial" font-size="13" lengthAdjust="spacing" textLength="43.2783" x="363.9433" y="472.8594">review</text><rect fill="#FFFFFF" height="35.1328" rx="12.5" ry="12.5" style="stroke:#C00000;stroke-width:0.5;" width="171.6963" x="55.2024" y="507.9253"/><text fill="#000000" font-family="Arial" font-size="13" lengthAdjust="spacing" textLength="151.6963" x="65.2024" y="529.9922">Create payment record</text><rect fill="#FFFFFF" height="35.1328" rx="12.5" ry="12.5" style="stroke:#C00000;stroke-width:0.5;" width="122.394" x="79.8535" y="563.0581"/><text fill="#000000" font-family="Arial" font-size="13" lengthAdjust="spacing" textLength="102.394" x="89.8535" y="585.125">Update balance</text><rect fill="#FFFFFF" height="35.1328" rx="12.5" ry="12.5" style="stroke:#C00000;stroke-width:0.5;" width="230.1011" x="26" y="633.1909"/><text fill="#000000" font-family="Arial" font-size="13" lengthAdjust="spacing" textLength="210.1011" x="36" y="655.2578">Receive SMS/email confirmation</text><polygon fill="#FFFFFF" points="300.2004,678.3237,312.2004,690.3237,300.2004,702.3237,288.2004,690.3237,300.2004,678.3237" style="stroke:#C00000;stroke-width:0.5;stroke-linejoin:miter;stroke-miterlimit:10;"/><polygon fill="#FFFFFF" points="512.9023,712.3237,524.9023,724.3237,512.9023,736.3237,500.9023,724.3237,512.9023,712.3237" style="stroke:#C00000;stroke-width:0.5;stroke-linejoin:miter;stroke-miterlimit:10;"/><line style="stroke:#000000;stroke-width:1.5;" x1="20" x2="20" y1="53.8628" y2="778.3237"/><rect fill="#FFFFFF" height="35.1328" rx="12.5" ry="12.5" style="stroke:#C00000;stroke-width:0.5;" width="141.2974" x="721.1834" y="507.9253"/><text fill="#000000" font-family="Arial" font-size="13" lengthAdjust="spacing" textLength="121.2974" x="731.1834" y="529.9922">Review bank proof</text><polygon fill="#FFFFFF" points="757.0628,563.0581,826.6014,563.0581,838.6014,575.0581,826.6014,587.0581,757.0628,587.0581,745.0628,575.0581,757.0628,563.0581" style="stroke:#C00000;stroke-width:0.5;stroke-linejoin:miter;stroke-miterlimit:10;"/><text fill="#000000" font-family="Arial" font-size="13" lengthAdjust="spacing" textLength="69.5386" x="757.0628" y="579.5586">Approved?</text><text fill="#000000" font-family="Arial" font-size="13" lengthAdjust="spacing" textLength="22.4644" x="722.5984" y="571.9922">yes</text><text fill="#000000" font-family="Arial" font-size="13" lengthAdjust="spacing" textLength="16.1929" x="838.6014" y="571.9922">no</text><rect fill="#FFFFFF" height="35.1328" rx="12.5" ry="12.5" style="stroke:#C00000;stroke-width:0.5;" width="171.6963" x="618.5829" y="597.0581"/><text fill="#000000" font-family="Arial" font-size="13" lengthAdjust="spacing" textLength="151.6963" x="628.5829" y="619.125">Create payment record</text><rect fill="#FFFFFF" height="35.1328" rx="12.5" ry="12.5" style="stroke:#C00000;stroke-width:0.5;" width="137.9077" x="810.2792" y="597.0581"/><text fill="#000000" font-family="Arial" font-size="13" lengthAdjust="spacing" textLength="117.9077" x="820.2792" y="619.125">Reject submission</text><polygon fill="#FFFFFF" points="791.8321,638.1909,803.8321,650.1909,791.8321,662.1909,779.8321,650.1909,791.8321,638.1909" style="stroke:#C00000;stroke-width:0.5;stroke-linejoin:miter;stroke-miterlimit:10;"/><rect fill="#FFFFFF" height="35.1328" rx="12.5" ry="12.5" style="stroke:#C00000;stroke-width:0.5;" width="153.7515" x="958.187" y="393.6597"/><text fill="#000000" font-family="Arial" font-size="13" lengthAdjust="spacing" textLength="133.7515" x="968.187" y="415.7266">Show error message</text><ellipse cx="848.8725" cy="767.3237" fill="none" rx="11" ry="11" style="stroke:#222222;stroke-width:1;"/><ellipse cx="848.8725" cy="767.3237" fill="#222222" rx="6" ry="6" style="stroke:#222222;stroke-width:1;"/><line style="stroke:#000000;stroke-width:1.5;" x1="612.5829" x2="612.5829" y1="53.8628" y2="778.3237"/><line style="stroke:#000000;stroke-width:1.5;" x1="1115.9384" x2="1115.9384" y1="53.8628" y2="778.3237"/><line style="stroke:#C00000;stroke-width:1;" x1="512.9023" x2="512.9023" y1="93.9956" y2="113.9956"/><polygon fill="#C00000" points="508.9023,103.9956,512.9023,113.9956,516.9023,103.9956,512.9023,107.9956" style="stroke:#C00000;stroke-width:1;stroke-linejoin:miter;stroke-miterlimit:10;"/><line style="stroke:#C00000;stroke-width:1;" x1="512.9023" x2="512.9023" y1="149.1284" y2="169.1284"/><polygon fill="#C00000" points="508.9023,159.1284,512.9023,169.1284,516.9023,159.1284,512.9023,163.1284" style="stroke:#C00000;stroke-width:1;stroke-linejoin:miter;stroke-miterlimit:10;"/><line style="stroke:#C00000;stroke-width:1;" x1="512.9023" x2="512.9023" y1="204.2612" y2="224.2612"/><polygon fill="#C00000" points="508.9023,214.2612,512.9023,224.2612,516.9023,214.2612,512.9023,218.2612" style="stroke:#C00000;stroke-width:1;stroke-linejoin:miter;stroke-miterlimit:10;"/><line style="stroke:#C00000;stroke-width:1;" x1="512.9023" x2="512.9023" y1="274.5269" y2="294.5269"/><polygon fill="#C00000" points="508.9023,284.5269,512.9023,294.5269,516.9023,284.5269,512.9023,288.5269" style="stroke:#C00000;stroke-width:1;stroke-linejoin:miter;stroke-miterlimit:10;"/><line style="stroke:#C00000;stroke-width:1;" x1="141.0505" x2="141.0505" y1="543.0581" y2="563.0581"/><polygon fill="#C00000" points="137.0505,553.0581,141.0505,563.0581,145.0505,553.0581,141.0505,557.0581" style="stroke:#C00000;stroke-width:1;stroke-linejoin:miter;stroke-miterlimit:10;"/><line style="stroke:#C00000;stroke-width:1;" x1="141.0505" x2="141.0505" y1="598.1909" y2="633.1909"/><polygon fill="#C00000" points="137.0505,623.1909,141.0505,633.1909,145.0505,623.1909,141.0505,627.1909" style="stroke:#C00000;stroke-width:1;stroke-linejoin:miter;stroke-miterlimit:10;"/><line style="stroke:#C00000;stroke-width:1;" x1="236.4575" x2="141.0505" y1="475.9253" y2="475.9253"/><line style="stroke:#C00000;stroke-width:1;" x1="141.0505" x2="141.0505" y1="475.9253" y2="507.9253"/><polygon fill="#C00000" points="137.0505,497.9253,141.0505,507.9253,145.0505,497.9253,141.0505,501.9253" style="stroke:#C00000;stroke-width:1;stroke-linejoin:miter;stroke-miterlimit:10;"/><line style="stroke:#C00000;stroke-width:1;" x1="141.0505" x2="141.0505" y1="668.3237" y2="690.3237"/><line style="stroke:#C00000;stroke-width:1;" x1="141.0505" x2="288.2004" y1="690.3237" y2="690.3237"/><polygon fill="#C00000" points="278.2004,686.3237,288.2004,690.3237,278.2004,694.3237,282.2004,690.3237" style="stroke:#C00000;stroke-width:1;stroke-linejoin:miter;stroke-miterlimit:10;"/><line style="stroke:#C00000;stroke-width:1;" x1="300.2004" x2="300.2004" y1="443.9253" y2="463.9253"/><polygon fill="#C00000" points="296.2004,453.9253,300.2004,463.9253,304.2004,453.9253,300.2004,457.9253" style="stroke:#C00000;stroke-width:1;stroke-linejoin:miter;stroke-miterlimit:10;"/><line style="stroke:#C00000;stroke-width:1;" x1="462.1784" x2="300.2004" y1="361.6597" y2="361.6597"/><line style="stroke:#C00000;stroke-width:1;" x1="300.2004" x2="300.2004" y1="361.6597" y2="393.6597"/><polygon fill="#C00000" points="296.2004,383.6597,300.2004,393.6597,304.2004,383.6597,300.2004,387.6597" style="stroke:#C00000;stroke-width:1;stroke-linejoin:miter;stroke-miterlimit:10;"/><line style="stroke:#C00000;stroke-width:1;" x1="300.2004" x2="300.2004" y1="702.3237" y2="724.3237"/><line style="stroke:#C00000;stroke-width:1;" x1="300.2004" x2="500.9023" y1="724.3237" y2="724.3237"/><polygon fill="#C00000" points="490.9023,720.3237,500.9023,724.3237,490.9023,728.3237,494.9023,724.3237" style="stroke:#C00000;stroke-width:1;stroke-linejoin:miter;stroke-miterlimit:10;"/><line style="stroke:#C00000;stroke-width:1;" x1="512.9023" x2="512.9023" y1="329.6597" y2="349.6597"/><polygon fill="#C00000" points="508.9023,339.6597,512.9023,349.6597,516.9023,339.6597,512.9023,343.6597" style="stroke:#C00000;stroke-width:1;stroke-linejoin:miter;stroke-miterlimit:10;"/><line style="stroke:#C00000;stroke-width:1;" x1="745.0628" x2="704.4311" y1="575.0581" y2="575.0581"/><line style="stroke:#C00000;stroke-width:1;" x1="704.4311" x2="704.4311" y1="575.0581" y2="597.0581"/><polygon fill="#C00000" points="700.4311,587.0581,704.4311,597.0581,708.4311,587.0581,704.4311,591.0581" style="stroke:#C00000;stroke-width:1;stroke-linejoin:miter;stroke-miterlimit:10;"/><line style="stroke:#C00000;stroke-width:1;" x1="838.6014" x2="879.2331" y1="575.0581" y2="575.0581"/><line style="stroke:#C00000;stroke-width:1;" x1="879.2331" x2="879.2331" y1="575.0581" y2="597.0581"/><polygon fill="#C00000" points="875.2331,587.0581,879.2331,597.0581,883.2331,587.0581,879.2331,591.0581" style="stroke:#C00000;stroke-width:1;stroke-linejoin:miter;stroke-miterlimit:10;"/><line style="stroke:#C00000;stroke-width:1;" x1="704.4311" x2="704.4311" y1="632.1909" y2="650.1909"/><line style="stroke:#C00000;stroke-width:1;" x1="704.4311" x2="779.8321" y1="650.1909" y2="650.1909"/><polygon fill="#C00000" points="769.8321,646.1909,779.8321,650.1909,769.8321,654.1909,773.8321,650.1909" style="stroke:#C00000;stroke-width:1;stroke-linejoin:miter;stroke-miterlimit:10;"/><line style="stroke:#C00000;stroke-width:1;" x1="879.2331" x2="879.2331" y1="632.1909" y2="650.1909"/><line style="stroke:#C00000;stroke-width:1;" x1="879.2331" x2="803.8321" y1="650.1909" y2="650.1909"/><polygon fill="#C00000" points="813.8321,646.1909,803.8321,650.1909,813.8321,654.1909,809.8321,650.1909" style="stroke:#C00000;stroke-width:1;stroke-linejoin:miter;stroke-miterlimit:10;"/><line style="stroke:#C00000;stroke-width:1;" x1="791.8321" x2="791.8321" y1="543.0581" y2="563.0581"/><polygon fill="#C00000" points="787.8321,553.0581,791.8321,563.0581,795.8321,553.0581,791.8321,557.0581" style="stroke:#C00000;stroke-width:1;stroke-linejoin:miter;stroke-miterlimit:10;"/><line style="stroke:#C00000;stroke-width:1;" x1="363.9433" x2="791.8321" y1="475.9253" y2="475.9253"/><line style="stroke:#C00000;stroke-width:1;" x1="791.8321" x2="791.8321" y1="475.9253" y2="507.9253"/><polygon fill="#C00000" points="787.8321,497.9253,791.8321,507.9253,795.8321,497.9253,791.8321,501.9253" style="stroke:#C00000;stroke-width:1;stroke-linejoin:miter;stroke-miterlimit:10;"/><line style="stroke:#C00000;stroke-width:1;" x1="791.8321" x2="791.8321" y1="662.1909" y2="690.3237"/><line style="stroke:#C00000;stroke-width:1;" x1="791.8321" x2="312.2004" y1="690.3237" y2="690.3237"/><polygon fill="#C00000" points="322.2004,686.3237,312.2004,690.3237,322.2004,694.3237,318.2004,690.3237" style="stroke:#C00000;stroke-width:1;stroke-linejoin:miter;stroke-miterlimit:10;"/><line style="stroke:#C00000;stroke-width:1;" x1="563.6262" x2="1035.0627" y1="361.6597" y2="361.6597"/><line style="stroke:#C00000;stroke-width:1;" x1="1035.0627" x2="1035.0627" y1="361.6597" y2="393.6597"/><polygon fill="#C00000" points="1031.0627,383.6597,1035.0627,393.6597,1039.0627,383.6597,1035.0627,387.6597" style="stroke:#C00000;stroke-width:1;stroke-linejoin:miter;stroke-miterlimit:10;"/><line style="stroke:#C00000;stroke-width:1;" x1="1035.0627" x2="1035.0627" y1="428.7925" y2="724.3237"/><line style="stroke:#C00000;stroke-width:1;" x1="1035.0627" x2="524.9023" y1="724.3237" y2="724.3237"/><polygon fill="#C00000" points="534.9023,720.3237,524.9023,724.3237,534.9023,728.3237,530.9023,724.3237" style="stroke:#C00000;stroke-width:1;stroke-linejoin:miter;stroke-miterlimit:10;"/><line style="stroke:#C00000;stroke-width:1;" x1="512.9023" x2="512.9023" y1="736.3237" y2="741.3237"/><line style="stroke:#C00000;stroke-width:1;" x1="512.9023" x2="848.8725" y1="741.3237" y2="741.3237"/><line style="stroke:#C00000;stroke-width:1;" x1="848.8725" x2="848.8725" y1="741.3237" y2="756.3237"/><polygon fill="#C00000" points="844.8725,746.3237,848.8725,756.3237,852.8725,746.3237,848.8725,750.3237" style="stroke:#C00000;stroke-width:1;stroke-linejoin:miter;stroke-miterlimit:10;"/><text fill="#000000" font-family="Arial" font-size="13" lengthAdjust="spacing" textLength="42.4849" x="295.049" y="65.9297">Parent</text><text fill="#000000" font-family="Arial" font-size="13" lengthAdjust="spacing" textLength="88.9497" x="819.7858" y="65.9297">School Admin</text><?plantuml-src VLB1ZjCm4BtxAqRYqWeXGDpQ0qfRBQf4LwjcjnBINgRsf1dgs97j9YhgWO_W2_aI9ZLR5LJm9VQyvpVlJHptx5eCs42iqVYUtGugj95Kl226AZpOTETTkiU6e0YCzZPUyZU2zn-km48dxZWTPpuO2dDlVO1NytV3ki4QD39dQr7lR-b8UHVymPdCwsjErsQB47p_PnkLE5cnFNzSRfQFNs2nB3wjYnNy_Fu37Z2GIp13jvVziHaEJwtrQ9GwPV2aOiAGrEIptx63KLjxH_0QMeonbrJZgPfic7hGDLi35H5iqQBJ981e0YQ8klRUIjtjdzteVZK3yJTVBsR3vTpl348WJTmcU5ZSJHLNCDgWPGDjyBxwE8PKapWuKXmhW4bvZ8aQw2XmnHG16vbBUdRe3A3Mms4gl46cE2J_1blHwSZyBIHIyq2OI3Bb4OWDIJRDs5Dh1kmIwbnS3qOxWd9LlgK6sOBshkBGO6Bl1XB9Au9He4vcaxkSoZo6mZJiJYyw0vx3drDc_RFdVzhzl-7SsFaBTqrVISjFE6mRZl6tFU4vmvLw-LxVcfIrxu7aAGLeA4RSIUnCYyctwXS0?></g></svg>