<svg xmlns="http://www.w3.org/2000/svg" xmlns:xlink="http://www.w3.org/1999/xlink" contentStyleType="text/css" data-diagram-type="CLASS" height="587px" preserveAspectRatio="none" style="width:526px;height:587px;background:#FFFFFF;" version="1.1" viewBox="0 0 526 587" width="526px" zoomAndPan="magnify"><?plantuml 1.2026.6?><defs/><g><g class="title" data-source-line="12"><text fill="#000000" font-family="Arial" font-size="14" font-weight="700" lengthAdjust="spacing" textLength="129.7734" x="194.626" y="22.9951">CLASS DIAGRAM</text><text fill="#000000" font-family="Arial" font-size="14" font-weight="700" lengthAdjust="spacing" textLength="371.458" x="73.7837" y="39.292">Mbonea Fee Tracking &amp; Receipt System (FTRS)</text></g><!--class Parent--><g class="entity" data-qualified-name="Parent" data-source-line="14" id="ent0001"><rect fill="#FFFFFF" height="101.875" rx="2.5" ry="2.5" style="stroke:#C00000;stroke-width:0.5;" width="115.3008" x="117.57" y="60.5938"/><ellipse cx="152.3078" cy="75.5938" fill="#ADD1B2" rx="10" ry="10" style="stroke:#181818;stroke-width:1;"/><path d="M154.1359,79.8438 Q153.7297,80.0469 153.2765,80.1563 Q152.8234,80.2656 152.339,80.2656 Q150.5578,80.2656 149.6203,79.1094 Q148.6984,77.9375 148.6984,75.7344 Q148.6984,73.5156 149.6203,72.3594 Q150.5578,71.1875 152.339,71.1875 Q152.8234,71.1875 153.2765,71.2969 Q153.7453,71.3906 154.1359,71.6094 L154.1359,73.5313 Q153.6984,73.125 153.2765,72.9375 Q152.8547,72.7344 152.4172,72.7344 Q151.464,72.7344 150.9797,73.5 Q150.4953,74.25 150.4953,75.7344 Q150.4953,77.2031 150.9797,77.9531 Q151.464,78.7031 152.4172,78.7031 Q152.8547,78.7031 153.2765,78.5156 Q153.6984,78.3281 154.1359,77.9219 L154.1359,79.8438 Z " fill="#000000"/><text fill="#000000" font-family="Arial" font-size="12" lengthAdjust="spacing" textLength="39.2168" x="169.9162" y="79.748">Parent</text><line style="stroke:#C00000;stroke-width:0.5;" x1="118.57" x2="231.8708" y1="90.5938" y2="90.5938"/><text fill="#000000" font-family="Arial" font-size="12" lengthAdjust="spacing" textLength="83.8652" x="123.57" y="105.7324">parent_id : int</text><text fill="#000000" font-family="Arial" font-size="12" lengthAdjust="spacing" textLength="83.6719" x="123.57" y="119.7012">phone : string</text><text fill="#000000" font-family="Arial" font-size="12" lengthAdjust="spacing" textLength="79.2129" x="123.57" y="133.6699">email : string</text><text fill="#000000" font-family="Arial" font-size="12" lengthAdjust="spacing" textLength="103.3008" x="123.57" y="147.6387">password : string</text><line style="stroke:#C00000;stroke-width:0.5;" x1="118.57" x2="231.8708" y1="154.4688" y2="154.4688"/></g><!--class Student--><g class="entity" data-qualified-name="Student" data-source-line="21" id="ent0002"><rect fill="#FFFFFF" height="129.8125" rx="2.5" ry="2.5" style="stroke:#C00000;stroke-width:0.5;" width="139.8457" x="105.3" y="237.4738"/><ellipse cx="147.6037" cy="252.4738" fill="#ADD1B2" rx="10" ry="10" style="stroke:#181818;stroke-width:1;"/><path d="M149.4318,256.7238 Q149.0256,256.9269 148.5725,257.0363 Q148.1193,257.1456 147.635,257.1456 Q145.8537,257.1456 144.9162,255.9894 Q143.9943,254.8175 143.9943,252.6144 Q143.9943,250.3956 144.9162,249.2394 Q145.8537,248.0675 147.635,248.0675 Q148.1193,248.0675 148.5725,248.1769 Q149.0412,248.2706 149.4318,248.4894 L149.4318,250.4113 Q148.9943,250.005 148.5725,249.8175 Q148.1506,249.6144 147.7131,249.6144 Q146.76,249.6144 146.2756,250.38 Q145.7912,251.13 145.7912,252.6144 Q145.7912,254.0831 146.2756,254.8331 Q146.76,255.5831 147.7131,255.5831 Q148.1506,255.5831 148.5725,255.3956 Q148.9943,255.2081 149.4318,254.8019 L149.4318,256.7238 Z " fill="#000000"/><text fill="#000000" font-family="Arial" font-size="12" lengthAdjust="spacing" textLength="47.2383" x="166.6037" y="256.628">Student</text><line style="stroke:#C00000;stroke-width:0.5;" x1="106.3" x2="244.1457" y1="267.4738" y2="267.4738"/><text fill="#000000" font-family="Arial" font-size="12" lengthAdjust="spacing" textLength="90.1406" x="111.3" y="282.6124">student_id : int</text><text fill="#000000" font-family="Arial" font-size="12" lengthAdjust="spacing" textLength="127.8457" x="111.3" y="296.5812">admission_no : string</text><text fill="#000000" font-family="Arial" font-size="12" lengthAdjust="spacing" textLength="80.1504" x="111.3" y="310.5499">name : string</text><text fill="#000000" font-family="Arial" font-size="12" lengthAdjust="spacing" textLength="115.9395" x="111.3" y="324.5187">class_name : string</text><text fill="#000000" font-family="Arial" font-size="12" lengthAdjust="spacing" textLength="106.2246" x="111.3" y="338.4874">balance : decimal</text><text fill="#000000" font-family="Arial" font-size="12" lengthAdjust="spacing" textLength="83.8652" x="111.3" y="352.4562">parent_id : int</text><line style="stroke:#C00000;stroke-width:0.5;" x1="106.3" x2="244.1457" y1="359.2863" y2="359.2863"/></g><!--class FeeStructure--><g class="entity" data-qualified-name="FeeStructure" data-source-line="30" id="ent0003"><rect fill="#FFFFFF" height="101.875" rx="2.5" ry="2.5" style="stroke:#C00000;stroke-width:0.5;" width="122.4434" x="7" y="456.2537"/><ellipse cx="27.6103" cy="471.2537" fill="#ADD1B2" rx="10" ry="10" style="stroke:#181818;stroke-width:1;"/><path d="M29.4384,475.5037 Q29.0321,475.7069 28.579,475.8162 Q28.1259,475.9256 27.6415,475.9256 Q25.8603,475.9256 24.9228,474.7694 Q24.0009,473.5975 24.0009,471.3944 Q24.0009,469.1756 24.9228,468.0194 Q25.8603,466.8475 27.6415,466.8475 Q28.1259,466.8475 28.579,466.9569 Q29.0478,467.0506 29.4384,467.2694 L29.4384,469.1912 Q29.0009,468.785 28.579,468.5975 Q28.1571,468.3944 27.7196,468.3944 Q26.7665,468.3944 26.2821,469.16 Q25.7978,469.91 25.7978,471.3944 Q25.7978,472.8631 26.2821,473.6131 Q26.7665,474.3631 27.7196,474.3631 Q28.1571,474.3631 28.579,474.1756 Q29.0009,473.9881 29.4384,473.5819 L29.4384,475.5037 Z " fill="#000000"/><text fill="#000000" font-family="Arial" font-size="12" lengthAdjust="spacing" textLength="77.7539" x="42.0792" y="475.408">FeeStructure</text><line style="stroke:#C00000;stroke-width:0.5;" x1="8" x2="128.4434" y1="486.2537" y2="486.2537"/><text fill="#000000" font-family="Arial" font-size="12" lengthAdjust="spacing" textLength="63.2578" x="13" y="501.3924">fee_id : int</text><text fill="#000000" font-family="Arial" font-size="12" lengthAdjust="spacing" textLength="110.4434" x="13" y="515.3612">class_level : string</text><text fill="#000000" font-family="Arial" font-size="12" lengthAdjust="spacing" textLength="105.2813" x="13" y="529.3299">amount : decimal</text><text fill="#000000" font-family="Arial" font-size="12" lengthAdjust="spacing" textLength="94.3945" x="13" y="543.2987">due_date : date</text><line style="stroke:#C00000;stroke-width:0.5;" x1="8" x2="128.4434" y1="550.1288" y2="550.1288"/></g><!--class Payment--><g class="entity" data-qualified-name="Payment" data-source-line="37" id="ent0004"><rect fill="#FFFFFF" height="129.8125" rx="2.5" ry="2.5" style="stroke:#C00000;stroke-width:0.5;" width="151.6055" x="359.42" y="442.2838"/><ellipse cx="404.6856" cy="457.2838" fill="#ADD1B2" rx="10" ry="10" style="stroke:#181818;stroke-width:1;"/><path d="M406.5138,461.5338 Q406.1075,461.7369 405.6544,461.8463 Q405.2013,461.9556 404.7169,461.9556 Q402.9356,461.9556 401.9981,460.7994 Q401.0763,459.6275 401.0763,457.4244 Q401.0763,455.2056 401.9981,454.0494 Q402.9356,452.8775 404.7169,452.8775 Q405.2013,452.8775 405.6544,452.9869 Q406.1231,453.0806 406.5138,453.2994 L406.5138,455.2213 Q406.0763,454.815 405.6544,454.6275 Q405.2325,454.4244 404.795,454.4244 Q403.8419,454.4244 403.3575,455.19 Q402.8731,455.94 402.8731,457.4244 Q402.8731,458.8931 403.3575,459.6431 Q403.8419,460.3931 404.795,460.3931 Q405.2325,460.3931 405.6544,460.2056 Q406.0763,460.0181 406.5138,459.6119 L406.5138,461.5338 Z " fill="#000000"/><text fill="#000000" font-family="Arial" font-size="12" lengthAdjust="spacing" textLength="53.0742" x="423.6856" y="461.438">Payment</text><line style="stroke:#C00000;stroke-width:0.5;" x1="360.42" x2="510.0255" y1="472.2838" y2="472.2838"/><text fill="#000000" font-family="Arial" font-size="12" lengthAdjust="spacing" textLength="97.7227" x="365.42" y="487.4224">payment_id : int</text><text fill="#000000" font-family="Arial" font-size="12" lengthAdjust="spacing" textLength="109.0195" x="365.42" y="501.3912">receipt_no : string</text><text fill="#000000" font-family="Arial" font-size="12" lengthAdjust="spacing" textLength="105.2813" x="365.42" y="515.3599">amount : decimal</text><text fill="#000000" font-family="Arial" font-size="12" lengthAdjust="spacing" textLength="125.2441" x="365.42" y="529.3287">payment_date : date</text><text fill="#000000" font-family="Arial" font-size="12" lengthAdjust="spacing" textLength="139.6055" x="365.42" y="543.2974">payment_mode : string</text><text fill="#000000" font-family="Arial" font-size="12" lengthAdjust="spacing" textLength="90.1406" x="365.42" y="557.2662">student_id : int</text><line style="stroke:#C00000;stroke-width:0.5;" x1="360.42" x2="510.0255" y1="564.0963" y2="564.0963"/></g><!--class User--><g class="entity" data-qualified-name="User" data-source-line="46" id="ent0005"><rect fill="#FFFFFF" height="101.875" rx="2.5" ry="2.5" style="stroke:#C00000;stroke-width:0.5;" width="118.3242" x="343.06" y="251.4337"/><ellipse cx="384.5463" cy="266.4338" fill="#ADD1B2" rx="10" ry="10" style="stroke:#181818;stroke-width:1;"/><path d="M386.3745,270.6838 Q385.9682,270.8869 385.5151,270.9963 Q385.062,271.1056 384.5776,271.1056 Q382.7963,271.1056 381.8588,269.9494 Q380.937,268.7775 380.937,266.5744 Q380.937,264.3556 381.8588,263.1994 Q382.7963,262.0275 384.5776,262.0275 Q385.062,262.0275 385.5151,262.1369 Q385.9838,262.2306 386.3745,262.4494 L386.3745,264.3713 Q385.937,263.965 385.5151,263.7775 Q385.0932,263.5744 384.6557,263.5744 Q383.7026,263.5744 383.2182,264.34 Q382.7338,265.09 382.7338,266.5744 Q382.7338,268.0431 383.2182,268.7931 Q383.7026,269.5431 384.6557,269.5431 Q385.0932,269.5431 385.5151,269.3556 Q385.937,269.1681 386.3745,268.7619 L386.3745,270.6838 Z " fill="#000000"/><text fill="#000000" font-family="Arial" font-size="12" lengthAdjust="spacing" textLength="27.3516" x="403.5463" y="270.588">User</text><line style="stroke:#C00000;stroke-width:0.5;" x1="344.06" x2="460.3842" y1="281.4338" y2="281.4338"/><text fill="#000000" font-family="Arial" font-size="12" lengthAdjust="spacing" textLength="70.4414" x="349.06" y="296.5724">user_id : int</text><text fill="#000000" font-family="Arial" font-size="12" lengthAdjust="spacing" textLength="106.3242" x="349.06" y="310.5412">username : string</text><text fill="#000000" font-family="Arial" font-size="12" lengthAdjust="spacing" textLength="103.3008" x="349.06" y="324.5099">password : string</text><text fill="#000000" font-family="Arial" font-size="12" lengthAdjust="spacing" textLength="69.1113" x="349.06" y="338.4787">role : string</text><line style="stroke:#C00000;stroke-width:0.5;" x1="344.06" x2="460.3842" y1="345.3088" y2="345.3088"/></g><!--class Notification--><g class="entity" data-qualified-name="Notification" data-source-line="53" id="ent0006"><rect fill="#FFFFFF" height="115.8438" rx="2.5" ry="2.5" style="stroke:#C00000;stroke-width:0.5;" width="123.75" x="188.35" y="449.2638"/><ellipse cx="213.5534" cy="464.2638" fill="#ADD1B2" rx="10" ry="10" style="stroke:#181818;stroke-width:1;"/><path d="M215.3815,468.5138 Q214.9753,468.7169 214.5222,468.8263 Q214.069,468.9356 213.5847,468.9356 Q211.8034,468.9356 210.8659,467.7794 Q209.944,466.6075 209.944,464.4044 Q209.944,462.1856 210.8659,461.0294 Q211.8034,459.8575 213.5847,459.8575 Q214.069,459.8575 214.5222,459.9669 Q214.9909,460.0606 215.3815,460.2794 L215.3815,462.2013 Q214.944,461.795 214.5222,461.6075 Q214.1003,461.4044 213.6628,461.4044 Q212.7097,461.4044 212.2253,462.17 Q211.7409,462.92 211.7409,464.4044 Q211.7409,465.8731 212.2253,466.6231 Q212.7097,467.3731 213.6628,467.3731 Q214.1003,467.3731 214.5222,467.1856 Q214.944,466.9981 215.3815,466.5919 L215.3815,468.5138 Z " fill="#000000"/><text fill="#000000" font-family="Arial" font-size="12" lengthAdjust="spacing" textLength="68.8535" x="229.0431" y="468.418">Notification</text><line style="stroke:#C00000;stroke-width:0.5;" x1="189.35" x2="311.1" y1="479.2638" y2="479.2638"/><text fill="#000000" font-family="Arial" font-size="12" lengthAdjust="spacing" textLength="111.75" x="194.35" y="494.4024">notification_id : int</text><text fill="#000000" font-family="Arial" font-size="12" lengthAdjust="spacing" textLength="100.0488" x="194.35" y="508.3712">message : string</text><text fill="#000000" font-family="Arial" font-size="12" lengthAdjust="spacing" textLength="93.6035" x="194.35" y="522.3399">channel : string</text><text fill="#000000" font-family="Arial" font-size="12" lengthAdjust="spacing" textLength="82.9922" x="194.35" y="536.3087">status : string</text><text fill="#000000" font-family="Arial" font-size="12" lengthAdjust="spacing" textLength="90.1406" x="194.35" y="550.2774">student_id : int</text><line style="stroke:#C00000;stroke-width:0.5;" x1="189.35" x2="311.1" y1="557.1075" y2="557.1075"/></g><!--link Parent to Student--><g class="link" data-entity-1="ent0001" data-entity-2="ent0002" data-link-type="association" data-source-line="61" id="lnk7"><path codeLine="61" d="M175.22,162.6438 C175.22,185.4838 175.22,212.7938 175.22,237.1137" fill="none" id="Parent-Student" style="stroke:#C00000;stroke-width:1;"/><polygon fill="#000000" points="179.22,204.4581,181.5711,197.2221,176.8689,197.2221,179.22,204.4581" style="stroke:#000000;stroke-width:1;stroke-linejoin:miter;stroke-miterlimit:10;"/><text fill="#000000" font-family="Arial" font-size="12" lengthAdjust="spacing" textLength="21.2109" x="188.22" y="204.6124">has</text><text fill="#000000" font-family="Arial" font-size="12" lengthAdjust="spacing" textLength="7.6348" x="167.7923" y="181.5892">1</text><text fill="#000000" font-family="Arial" font-size="12" lengthAdjust="spacing" textLength="21.2637" x="152.956" y="226.5649">0..*</text></g><!--link Student to FeeStructure--><g class="link" data-entity-1="ent0002" data-entity-2="ent0003" data-link-type="association" data-source-line="62" id="lnk8"><path codeLine="62" d="M112.14,367.5938 C105,377.0538 98.43,387.0638 93.22,397.2838 C84.01,415.3438 78.15,436.8038 74.45,455.8838" fill="none" id="Student-FeeStructure" style="stroke:#C00000;stroke-width:1;"/><polygon fill="#000000" points="95.6496,408.9469,100.6529,403.215,96.3282,401.3688,95.6496,408.9469" style="stroke:#000000;stroke-width:1;stroke-linejoin:miter;stroke-miterlimit:10;"/><text fill="#000000" font-family="Arial" font-size="12" lengthAdjust="spacing" textLength="53.4141" x="106.22" y="409.4224">assigned</text><text fill="#000000" font-family="Arial" font-size="12" lengthAdjust="spacing" textLength="21.2637" x="83.1063" y="386.6291">0..*</text><text fill="#000000" font-family="Arial" font-size="12" lengthAdjust="spacing" textLength="7.6348" x="67.9164" y="445.2448">1</text></g><!--link Student to Payment--><g class="link" data-entity-1="ent0002" data-entity-2="ent0004" data-link-type="association" data-source-line="63" id="lnk9"><path codeLine="63" d="M209.34,367.5938 C220.35,383.8538 233.77,400.1337 249.22,412.2838 C279.07,435.7537 295.04,425.7438 329.22,442.2838 C339.09,447.0538 349.23,452.4638 359.14,458.0638" fill="none" id="Student-Payment" style="stroke:#C00000;stroke-width:1;"/><polygon fill="#000000" points="256.644,407.336,251.6654,401.5826,249.2344,405.6077,256.644,407.336" style="stroke:#000000;stroke-width:1;stroke-linejoin:miter;stroke-miterlimit:10;"/><text fill="#000000" font-family="Arial" font-size="12" lengthAdjust="spacing" textLength="50.3672" x="262.22" y="409.4224">receives</text><text fill="#000000" font-family="Arial" font-size="12" lengthAdjust="spacing" textLength="7.6348" x="205.7235" y="386.6291">1</text><text fill="#000000" font-family="Arial" font-size="12" lengthAdjust="spacing" textLength="21.2637" x="330.1703" y="451.119">0..*</text></g><!--link Student to Notification--><g class="link" data-entity-1="ent0002" data-entity-2="ent0006" data-link-type="association" data-source-line="64" id="lnk10"><path codeLine="64" d="M165.62,367.7038 C165.51,382.6738 167.18,398.3138 172.22,412.2838 C176.9,425.2338 184.23,437.6738 192.57,449.0037" fill="none" id="Student-Notification" style="stroke:#C00000;stroke-width:1;"/><polygon fill="#000000" points="177.4786,409.065,177.4335,401.4566,172.97,402.9362,177.4786,409.065" style="stroke:#000000;stroke-width:1;stroke-linejoin:miter;stroke-miterlimit:10;"/><text fill="#000000" font-family="Arial" font-size="12" lengthAdjust="spacing" textLength="25.957" x="185.22" y="409.4224">gets</text><text fill="#000000" font-family="Arial" font-size="12" lengthAdjust="spacing" textLength="7.6348" x="157.3015" y="386.2992">1</text><text fill="#000000" font-family="Arial" font-size="12" lengthAdjust="spacing" textLength="21.2637" x="162.4294" y="438.5159">0..*</text></g><!--link User to Payment--><g class="link" data-entity-1="ent0005" data-entity-2="ent0004" data-link-type="dependency" data-source-line="65" id="lnk11"><path codeLine="65" d="M410.42,353.7738 C414.75,380.4038 419.3171,408.4386 423.9471,436.8986" fill="none" id="User-to-Payment" style="stroke:#C00000;stroke-width:1;stroke-dasharray:7,7;"/><polygon fill="#C00000" points="424.75,441.8338,427.2529,432.3082,423.9471,436.8986,419.3567,433.5928,424.75,441.8338" style="stroke:#C00000;stroke-width:1;stroke-linejoin:miter;stroke-miterlimit:10;"/><polygon fill="#000000" points="424.3525,409.2162,425.5108,401.6964,420.8696,402.4517,424.3525,409.2162" style="stroke:#000000;stroke-width:1;stroke-linejoin:miter;stroke-miterlimit:10;"/><text fill="#000000" font-family="Arial" font-size="12" lengthAdjust="spacing" textLength="45.0586" x="432.71" y="409.4224">records</text></g><!--link User to Notification--><g class="link" data-entity-1="ent0005" data-entity-2="ent0006" data-link-type="dependency" data-source-line="66" id="lnk12"><path codeLine="66" d="M364.45,353.7738 C342.82,382.6238 318.6087,414.9428 296.1687,444.8828" fill="none" id="User-to-Notification" style="stroke:#C00000;stroke-width:1;stroke-dasharray:7,7;"/><polygon fill="#C00000" points="293.17,448.8838,301.7685,444.081,296.1687,444.8828,295.3669,439.283,293.17,448.8838" style="stroke:#C00000;stroke-width:1;stroke-linejoin:miter;stroke-miterlimit:10;"/><polygon fill="#000000" points="332.3811,408.469,338.6021,404.0886,334.8393,401.2686,332.3811,408.469" style="stroke:#000000;stroke-width:1;stroke-linejoin:miter;stroke-miterlimit:10;"/><text fill="#000000" font-family="Arial" font-size="12" lengthAdjust="spacing" textLength="35.1094" x="343.78" y="409.4224">sends</text></g><?plantuml-src XL9HQzim47xthpWo6DkW8TsZ7mfkHaPXBINktWRXObriKLaAqhcX6_tla-KwaPoCvINITwVllli-ksUfzsYn1TUWC0UfQzYXSfIvOwLIw5p1REMsOxghZ2xbRu95r29eXvtYbT7yW2r1OIMgo_Nmzlhhb1_-P02tM3tNrdHQB8qo5WwDPEfnOmNP0VkmNFG_ZnRMciCKx4SCs5PvjkmjorYo8bZ-ACeIljqLtzV5_IzzlpMQ45P4y6HzOx_uHrXJHNBFKBuwfXO-hPxMvUSi6nG-eYNDGUW-73TIG0vISuyqdi_VdBT9rnwW5gMAWRtdEFX5JjZRo5no9qPgDvnZRXIjT4uQlT4cPjIzrT4za6scw1OLwgg715MozRcSwpygyNwKRBkAEqj1peuebZACKFH2oMxO-j0u6I4wsWZaCDV_dKOyucjxyZ6SumbsY62oweK1uzjuo0bjZKXSEBFrgEUd8nl4TFuGA-dlKpFFG_IAZQ8BeJuObZjP8VlW0h-EW7XEIyvXdIRPeDQfnOwHE_U_bTw_qTdr3AwkOBQOpx_CZfzN3WqwkCd6-tkvR_JzIVGv-1LahKd4_Gdhc6C-HFP2xf-jYHKvrCHzRp1-Fhz9cRovIN7orf4EzRy0?></g></svg>