<svg xmlns="http://www.w3.org/2000/svg" xmlns:xlink="http://www.w3.org/1999/xlink" contentStyleType="text/css" data-diagram-type="SEQUENCE" height="523px" preserveAspectRatio="none" style="width:471px;height:523px;background:#FFFFFF;" version="1.1" viewBox="0 0 471 523" width="471px" zoomAndPan="magnify"><?plantuml 1.2026.6?><defs/><g><g class="title" data-source-line="9"><text fill="#000000" font-family="Arial" font-size="14" font-weight="700" lengthAdjust="spacing" textLength="444.5684" x="10" y="27.9951">SEQUENCE DIAGRAM &#8212; Record Payment &amp; Notify Parent</text></g><g class="participant-lifeline" data-entity-uid="part1" data-qualified-name="Admin" data-source-line="11" id="part1-lifeline"><g><title>Admin</title><rect fill="#000000" fill-opacity="0.00000" height="327.6563" width="8" x="33.561" y="116.2656"/><line style="stroke:#181818;stroke-width:0.5;stroke-dasharray:5,5;" x1="37.3335" x2="37.3335" y1="116.2656" y2="443.9219"/></g></g><g class="participant-lifeline" data-entity-uid="part2" data-qualified-name="System" data-source-line="12" id="part2-lifeline"><g><title>System</title><rect fill="#000000" fill-opacity="0.00000" height="327.6563" width="8" x="152.0083" y="116.2656"/><line style="stroke:#181818;stroke-width:0.5;stroke-dasharray:5,5;" x1="155.6343" x2="155.6343" y1="116.2656" y2="443.9219"/></g></g><g class="participant-lifeline" data-entity-uid="part3" data-qualified-name="Database" data-source-line="13" id="part3-lifeline"><g><title>Database</title><rect fill="#000000" fill-opacity="0.00000" height="327.6563" width="8" x="266.5356" y="116.2656"/><line style="stroke:#181818;stroke-width:0.5;stroke-dasharray:5,5;" x1="269.9067" x2="269.9067" y1="116.2656" y2="443.9219"/></g></g><g class="participant-lifeline" data-entity-uid="part4" data-qualified-name="NS" data-source-line="14" id="part4-lifeline"><g><title>Notification</title><rect fill="#000000" fill-opacity="0.00000" height="327.6563" width="8" x="349.5913" y="116.2656"/><line style="stroke:#181818;stroke-width:0.5;stroke-dasharray:5,5;" x1="353.1646" x2="353.1646" y1="116.2656" y2="443.9219"/></g></g><g class="participant-lifeline" data-entity-uid="part5" data-qualified-name="Parent" data-source-line="15" id="part5-lifeline"><g><title>Parent</title><rect fill="#000000" fill-opacity="0.00000" height="327.6563" width="8" x="423.6265" y="116.2656"/><line style="stroke:#181818;stroke-width:0.5;stroke-dasharray:5,5;" x1="427.0181" x2="427.0181" y1="116.2656" y2="443.9219"/></g></g><g class="participant participant-head" data-entity-uid="part1" data-qualified-name="Admin" data-source-line="11" id="part1-head"><text fill="#000000" font-family="Arial" font-size="12" lengthAdjust="spacing" textLength="38.4551" x="15.3335" y="113.4355">Admin</text><ellipse cx="37.561" cy="50.7969" fill="#E2E2F0" rx="8" ry="8" style="stroke:#181818;stroke-width:0.5;"/><path d="M37.561,58.7969 L37.561,85.7969 M24.561,66.7969 L50.561,66.7969 M37.561,85.7969 L24.561,100.7969 M37.561,85.7969 L50.561,100.7969" fill="none" style="stroke:#181818;stroke-width:0.5;"/></g><g class="participant participant-tail" data-entity-uid="part1" data-qualified-name="Admin" data-source-line="11" id="part1-tail"><text fill="#000000" font-family="Arial" font-size="12" lengthAdjust="spacing" textLength="38.4551" x="15.3335" y="454.0605">Admin</text><ellipse cx="37.561" cy="465.3906" fill="#E2E2F0" rx="8" ry="8" style="stroke:#181818;stroke-width:0.5;"/><path d="M37.561,473.3906 L37.561,500.3906 M24.561,481.3906 L50.561,481.3906 M37.561,500.3906 L24.561,515.3906 M37.561,500.3906 L50.561,515.3906" fill="none" style="stroke:#181818;stroke-width:0.5;"/></g><g class="participant participant-head" data-entity-uid="part2" data-qualified-name="System" data-source-line="12" id="part2-head"><rect fill="#E2E2F0" height="27.9688" rx="2.5" ry="2.5" style="stroke:#C00000;stroke-width:0.5;" width="58.748" x="126.6343" y="87.2969"/><text fill="#000000" font-family="Arial" font-size="12" lengthAdjust="spacing" textLength="44.748" x="133.6343" y="105.4355">System</text></g><g class="participant participant-tail" data-entity-uid="part2" data-qualified-name="System" data-source-line="12" id="part2-tail"><rect fill="#E2E2F0" height="27.9688" rx="2.5" ry="2.5" style="stroke:#C00000;stroke-width:0.5;" width="58.748" x="126.6343" y="442.9219"/><text fill="#000000" font-family="Arial" font-size="12" lengthAdjust="spacing" textLength="44.748" x="133.6343" y="461.0605">System</text></g><g class="participant participant-head" data-entity-uid="part3" data-qualified-name="Database" data-source-line="13" id="part3-head"><text fill="#000000" font-family="Arial" font-size="12" lengthAdjust="spacing" textLength="57.2578" x="238.9067" y="113.4355">Database</text><path d="M252.5356,66.2969 C252.5356,56.2969 270.5356,56.2969 270.5356,56.2969 C270.5356,56.2969 288.5356,56.2969 288.5356,66.2969 L288.5356,92.2969 C288.5356,102.2969 270.5356,102.2969 270.5356,102.2969 C270.5356,102.2969 252.5356,102.2969 252.5356,92.2969 L252.5356,66.2969" fill="#E2E2F0" style="stroke:#181818;stroke-width:0.5;"/><path d="M252.5356,66.2969 C252.5356,76.2969 270.5356,76.2969 270.5356,76.2969 C270.5356,76.2969 288.5356,76.2969 288.5356,66.2969" fill="none" style="stroke:#181818;stroke-width:0.5;"/></g><g class="participant participant-tail" data-entity-uid="part3" data-qualified-name="Database" data-source-line="13" id="part3-tail"><text fill="#000000" font-family="Arial" font-size="12" lengthAdjust="spacing" textLength="57.2578" x="238.9067" y="454.0605">Database</text><path d="M252.5356,466.8906 C252.5356,456.8906 270.5356,456.8906 270.5356,456.8906 C270.5356,456.8906 288.5356,456.8906 288.5356,466.8906 L288.5356,492.8906 C288.5356,502.8906 270.5356,502.8906 270.5356,502.8906 C270.5356,502.8906 252.5356,502.8906 252.5356,492.8906 L252.5356,466.8906" fill="#E2E2F0" style="stroke:#181818;stroke-width:0.5;"/><path d="M252.5356,466.8906 C252.5356,476.8906 270.5356,476.8906 270.5356,476.8906 C270.5356,476.8906 288.5356,476.8906 288.5356,466.8906" fill="none" style="stroke:#181818;stroke-width:0.5;"/></g><g class="participant participant-head" data-entity-uid="part4" data-qualified-name="NS" data-source-line="14" id="part4-head"><rect fill="#E2E2F0" height="41.9375" rx="2.5" ry="2.5" style="stroke:#C00000;stroke-width:0.5;" width="82.8535" x="312.1646" y="73.3281"/><text fill="#000000" font-family="Arial" font-size="12" lengthAdjust="spacing" textLength="68.8535" x="319.1646" y="91.4668">Notification</text><text fill="#000000" font-family="Arial" font-size="12" lengthAdjust="spacing" textLength="44.3496" x="331.4165" y="105.4355">Service</text></g><g class="participant participant-tail" data-entity-uid="part4" data-qualified-name="NS" data-source-line="14" id="part4-tail"><rect fill="#E2E2F0" height="41.9375" rx="2.5" ry="2.5" style="stroke:#C00000;stroke-width:0.5;" width="82.8535" x="312.1646" y="442.9219"/><text fill="#000000" font-family="Arial" font-size="12" lengthAdjust="spacing" textLength="68.8535" x="319.1646" y="461.0605">Notification</text><text fill="#000000" font-family="Arial" font-size="12" lengthAdjust="spacing" textLength="44.3496" x="331.4165" y="475.0293">Service</text></g><g class="participant participant-head" data-entity-uid="part5" data-qualified-name="Parent" data-source-line="15" id="part5-head"><text fill="#000000" font-family="Arial" font-size="12" lengthAdjust="spacing" textLength="39.2168" x="405.0181" y="113.4355">Parent</text><ellipse cx="427.6265" cy="50.7969" fill="#E2E2F0" rx="8" ry="8" style="stroke:#181818;stroke-width:0.5;"/><path d="M427.6265,58.7969 L427.6265,85.7969 M414.6265,66.7969 L440.6265,66.7969 M427.6265,85.7969 L414.6265,100.7969 M427.6265,85.7969 L440.6265,100.7969" fill="none" style="stroke:#181818;stroke-width:0.5;"/></g><g class="participant participant-tail" data-entity-uid="part5" data-qualified-name="Parent" data-source-line="15" id="part5-tail"><text fill="#000000" font-family="Arial" font-size="12" lengthAdjust="spacing" textLength="39.2168" x="405.0181" y="454.0605">Parent</text><ellipse cx="427.6265" cy="465.3906" fill="#E2E2F0" rx="8" ry="8" style="stroke:#181818;stroke-width:0.5;"/><path d="M427.6265,473.3906 L427.6265,500.3906 M414.6265,481.3906 L440.6265,481.3906 M427.6265,500.3906 L414.6265,515.3906 M427.6265,500.3906 L440.6265,515.3906" fill="none" style="stroke:#181818;stroke-width:0.5;"/></g><g class="message" data-entity-1="part1" data-entity-2="part2" data-source-line="17" id="msg1"><polygon fill="#C00000" points="144.0083,142.2344,154.0083,146.2344,144.0083,150.2344,148.0083,146.2344" style="stroke:#C00000;stroke-width:1;stroke-linejoin:miter;stroke-miterlimit:10;"/><line style="stroke:#C00000;stroke-width:1;" x1="37.561" x2="150.0083" y1="146.2344" y2="146.2344"/><text fill="#000000" font-family="Arial" font-size="12" lengthAdjust="spacing" textLength="38.5957" x="44.561" y="141.4043">login()</text></g><g class="message" data-entity-1="part2" data-entity-2="part3" data-source-line="18" id="msg2"><polygon fill="#C00000" points="258.5356,170.2031,268.5356,174.2031,258.5356,178.2031,262.5356,174.2031" style="stroke:#C00000;stroke-width:1;stroke-linejoin:miter;stroke-miterlimit:10;"/><line style="stroke:#C00000;stroke-width:1;" x1="156.0083" x2="264.5356" y1="174.2031" y2="174.2031"/><text fill="#000000" font-family="Arial" font-size="12" lengthAdjust="spacing" textLength="43.4414" x="163.0083" y="169.373">verify()</text></g><g class="message" data-entity-1="part3" data-entity-2="part2" data-source-line="19" id="msg3"><polygon fill="#C00000" points="167.0083,198.1719,157.0083,202.1719,167.0083,206.1719,163.0083,202.1719" style="stroke:#C00000;stroke-width:1;stroke-linejoin:miter;stroke-miterlimit:10;"/><line style="stroke:#C00000;stroke-width:1;stroke-dasharray:2,2;" x1="161.0083" x2="269.5356" y1="202.1719" y2="202.1719"/><text fill="#000000" font-family="Arial" font-size="12" lengthAdjust="spacing" textLength="46.9395" x="173.0083" y="197.3418">success</text></g><g class="message" data-entity-1="part1" data-entity-2="part2" data-source-line="21" id="msg4"><polygon fill="#C00000" points="144.0083,226.1406,154.0083,230.1406,144.0083,234.1406,148.0083,230.1406" style="stroke:#C00000;stroke-width:1;stroke-linejoin:miter;stroke-miterlimit:10;"/><line style="stroke:#C00000;stroke-width:1;" x1="37.561" x2="150.0083" y1="230.1406" y2="230.1406"/><text fill="#000000" font-family="Arial" font-size="12" lengthAdjust="spacing" textLength="94.4473" x="44.561" y="225.3105">enterPayment()</text></g><g class="message" data-entity-1="part2" data-entity-2="part3" data-source-line="22" id="msg5"><polygon fill="#C00000" points="258.5356,254.1094,268.5356,258.1094,258.5356,262.1094,262.5356,258.1094" style="stroke:#C00000;stroke-width:1;stroke-linejoin:miter;stroke-miterlimit:10;"/><line style="stroke:#C00000;stroke-width:1;" x1="156.0083" x2="264.5356" y1="258.1094" y2="258.1094"/><text fill="#000000" font-family="Arial" font-size="12" lengthAdjust="spacing" textLength="90.5273" x="163.0083" y="253.2793">savePayment()</text></g><g class="message" data-entity-1="part3" data-entity-2="part2" data-source-line="23" id="msg6"><polygon fill="#C00000" points="167.0083,282.0781,157.0083,286.0781,167.0083,290.0781,163.0083,286.0781" style="stroke:#C00000;stroke-width:1;stroke-linejoin:miter;stroke-miterlimit:10;"/><line style="stroke:#C00000;stroke-width:1;stroke-dasharray:2,2;" x1="161.0083" x2="269.5356" y1="286.0781" y2="286.0781"/><text fill="#000000" font-family="Arial" font-size="12" lengthAdjust="spacing" textLength="60.7266" x="173.0083" y="281.248">confirmed</text></g><g class="message" data-entity-1="part2" data-entity-2="part3" data-source-line="25" id="msg7"><polygon fill="#C00000" points="258.5356,310.0469,268.5356,314.0469,258.5356,318.0469,262.5356,314.0469" style="stroke:#C00000;stroke-width:1;stroke-linejoin:miter;stroke-miterlimit:10;"/><line style="stroke:#C00000;stroke-width:1;" x1="156.0083" x2="264.5356" y1="314.0469" y2="314.0469"/><text fill="#000000" font-family="Arial" font-size="12" lengthAdjust="spacing" textLength="81.1055" x="163.0083" y="309.2168">calcBalance()</text></g><g class="message" data-entity-1="part3" data-entity-2="part2" data-source-line="26" id="msg8"><polygon fill="#C00000" points="167.0083,338.0156,157.0083,342.0156,167.0083,346.0156,163.0083,342.0156" style="stroke:#C00000;stroke-width:1;stroke-linejoin:miter;stroke-miterlimit:10;"/><line style="stroke:#C00000;stroke-width:1;stroke-dasharray:2,2;" x1="161.0083" x2="269.5356" y1="342.0156" y2="342.0156"/><text fill="#000000" font-family="Arial" font-size="12" lengthAdjust="spacing" textLength="47.2441" x="173.0083" y="337.1855">balance</text></g><g class="message" data-entity-1="part2" data-entity-2="part4" data-source-line="28" id="msg9"><polygon fill="#C00000" points="341.5913,365.9844,351.5913,369.9844,341.5913,373.9844,345.5913,369.9844" style="stroke:#C00000;stroke-width:1;stroke-linejoin:miter;stroke-miterlimit:10;"/><line style="stroke:#C00000;stroke-width:1;" x1="156.0083" x2="347.5913" y1="369.9844" y2="369.9844"/><text fill="#000000" font-family="Arial" font-size="12" lengthAdjust="spacing" textLength="63.8086" x="163.0083" y="365.1543">sendSMS()</text></g><g class="message" data-entity-1="part2" data-entity-2="part4" data-source-line="29" id="msg10"><polygon fill="#C00000" points="341.5913,393.9531,351.5913,397.9531,341.5913,401.9531,345.5913,397.9531" style="stroke:#C00000;stroke-width:1;stroke-linejoin:miter;stroke-miterlimit:10;"/><line style="stroke:#C00000;stroke-width:1;" x1="156.0083" x2="347.5913" y1="397.9531" y2="397.9531"/><text fill="#000000" font-family="Arial" font-size="12" lengthAdjust="spacing" textLength="71.5137" x="163.0083" y="393.123">sendEmail()</text></g><g class="message" data-entity-1="part4" data-entity-2="part5" data-source-line="30" id="msg11"><polygon fill="#C00000" points="415.6265,421.9219,425.6265,425.9219,415.6265,429.9219,419.6265,425.9219" style="stroke:#C00000;stroke-width:1;stroke-linejoin:miter;stroke-miterlimit:10;"/><line style="stroke:#C00000;stroke-width:1;" x1="353.5913" x2="421.6265" y1="425.9219" y2="425.9219"/><text fill="#000000" font-family="Arial" font-size="12" lengthAdjust="spacing" textLength="41.0859" x="360.5913" y="421.0918">deliver</text></g><?plantuml-src VP71JW8n48RlVOe99aOF9EBHWyaAgp61ZLAzUHdQMPZGRR4j43pv43wXJsA11PO4tDFkV7___zzfcBATeSSAmWIrMx8TGuaca0Xxegd4kOcFpiO2AuBCCvhJNF8NGUUs0GDzpiagohntoxS9gwcb4A3JaBoWZwnuXZO-EA_9Tvrn7YwwD-kd8UnpINsszBzgatGCHUHe26J--fuNtHnwpzdJC1l0x_SF34abkrHYLP6DS0c5YrokrgtIjn2eOdBATCLMp0vDGQv2f4feZ3Z2GD2hNuv4hOqPAupix8ULv1Uig0KOe92rzIve4m7j-zePxi2uCTkhQr4F4jg59BWWdseckf-rcsV3NAcqw5EsAOry_R_dt0Ckw20v7Q6SBTbNfCLf3uL6FQ31TFjdFKPRtdGev3gVh9O3ULHl3_8AsIIK1ccytLz2cWodhOW_?></g></svg>