<svg xmlns="http://www.w3.org/2000/svg" xmlns:xlink="http://www.w3.org/1999/xlink" contentStyleType="text/css" data-diagram-type="SEQUENCE" height="569px" preserveAspectRatio="none" style="width:580px;height:569px;background:#FFFFFF;" version="1.1" viewBox="0 0 580 569" width="580px" zoomAndPan="magnify"><?plantuml 1.2026.6?><defs/><g><g class="title" data-source-line="9"><text fill="#000000" font-family="Arial" font-size="14" font-weight="700" lengthAdjust="spacing" textLength="418.9951" x="77.2021" y="27.9951">SEQUENCE DIAGRAM &#8212; Parent Bank Payment Upload</text></g><rect fill="none" height="199.75" style="stroke:#000000;stroke-width:1.5;" width="554.3994" x="10" y="273.1094"/><g class="participant-lifeline" data-entity-uid="part1" data-qualified-name="Parent" data-source-line="11" id="part1-lifeline"><g><title>Parent</title><rect fill="#000000" fill-opacity="0.00000" height="373.5938" width="8" x="38.6084" y="116.2656"/><line style="stroke:#181818;stroke-width:0.5;stroke-dasharray:5,5;" x1="42" x2="42" y1="116.2656" y2="489.8594"/></g></g><g class="participant-lifeline" data-entity-uid="part2" data-qualified-name="System" data-source-line="12" id="part2-lifeline"><g><title>System</title><rect fill="#000000" fill-opacity="0.00000" height="373.5938" width="8" x="188.3389" y="116.2656"/><line style="stroke:#181818;stroke-width:0.5;stroke-dasharray:5,5;" x1="191.9648" x2="191.9648" y1="116.2656" y2="489.8594"/></g></g><g class="participant-lifeline" data-entity-uid="part3" data-qualified-name="Database" data-source-line="13" id="part3-lifeline"><g><title>Database</title><rect fill="#000000" fill-opacity="0.00000" height="373.5938" width="8" x="312.3232" y="116.2656"/><line style="stroke:#181818;stroke-width:0.5;stroke-dasharray:5,5;" x1="315.6943" x2="315.6943" y1="116.2656" y2="489.8594"/></g></g><g class="participant-lifeline" data-entity-uid="part4" data-qualified-name="BV" data-source-line="14" id="part4-lifeline"><g><title>Bank</title><rect fill="#000000" fill-opacity="0.00000" height="373.5938" width="8" x="428.6787" y="116.2656"/><line style="stroke:#181818;stroke-width:0.5;stroke-dasharray:5,5;" x1="431.8115" x2="431.8115" y1="116.2656" y2="489.8594"/></g></g><g class="participant-lifeline" data-entity-uid="part5" data-qualified-name="NS" data-source-line="15" id="part5-lifeline"><g><title>Notification</title><rect fill="#000000" fill-opacity="0.00000" height="373.5938" width="8" x="508.9727" y="116.2656"/><line style="stroke:#181818;stroke-width:0.5;stroke-dasharray:5,5;" x1="512.5459" x2="512.5459" y1="116.2656" y2="489.8594"/></g></g><g class="participant participant-head" data-entity-uid="part1" data-qualified-name="Parent" data-source-line="11" id="part1-head"><text fill="#000000" font-family="Arial" font-size="12" lengthAdjust="spacing" textLength="39.2168" x="20" y="113.4355">Parent</text><ellipse cx="42.6084" cy="50.7969" fill="#E2E2F0" rx="8" ry="8" style="stroke:#181818;stroke-width:0.5;"/><path d="M42.6084,58.7969 L42.6084,85.7969 M29.6084,66.7969 L55.6084,66.7969 M42.6084,85.7969 L29.6084,100.7969 M42.6084,85.7969 L55.6084,100.7969" fill="none" style="stroke:#181818;stroke-width:0.5;"/></g><g class="participant participant-tail" data-entity-uid="part1" data-qualified-name="Parent" data-source-line="11" id="part1-tail"><text fill="#000000" font-family="Arial" font-size="12" lengthAdjust="spacing" textLength="39.2168" x="20" y="499.998">Parent</text><ellipse cx="42.6084" cy="511.3281" fill="#E2E2F0" rx="8" ry="8" style="stroke:#181818;stroke-width:0.5;"/><path d="M42.6084,519.3281 L42.6084,546.3281 M29.6084,527.3281 L55.6084,527.3281 M42.6084,546.3281 L29.6084,561.3281 M42.6084,546.3281 L55.6084,561.3281" fill="none" style="stroke:#181818;stroke-width:0.5;"/></g><g class="participant participant-head" data-entity-uid="part2" data-qualified-name="System" data-source-line="12" id="part2-head"><rect fill="#E2E2F0" height="27.9688" rx="2.5" ry="2.5" style="stroke:#C00000;stroke-width:0.5;" width="58.748" x="162.9648" y="87.2969"/><text fill="#000000" font-family="Arial" font-size="12" lengthAdjust="spacing" textLength="44.748" x="169.9648" y="105.4355">System</text></g><g class="participant participant-tail" data-entity-uid="part2" data-qualified-name="System" data-source-line="12" id="part2-tail"><rect fill="#E2E2F0" height="27.9688" rx="2.5" ry="2.5" style="stroke:#C00000;stroke-width:0.5;" width="58.748" x="162.9648" y="488.8594"/><text fill="#000000" font-family="Arial" font-size="12" lengthAdjust="spacing" textLength="44.748" x="169.9648" y="506.998">System</text></g><g class="participant participant-head" data-entity-uid="part3" data-qualified-name="Database" data-source-line="13" id="part3-head"><text fill="#000000" font-family="Arial" font-size="12" lengthAdjust="spacing" textLength="57.2578" x="284.6943" y="113.4355">Database</text><path d="M298.3232,66.2969 C298.3232,56.2969 316.3232,56.2969 316.3232,56.2969 C316.3232,56.2969 334.3232,56.2969 334.3232,66.2969 L334.3232,92.2969 C334.3232,102.2969 316.3232,102.2969 316.3232,102.2969 C316.3232,102.2969 298.3232,102.2969 298.3232,92.2969 L298.3232,66.2969" fill="#E2E2F0" style="stroke:#181818;stroke-width:0.5;"/><path d="M298.3232,66.2969 C298.3232,76.2969 316.3232,76.2969 316.3232,76.2969 C316.3232,76.2969 334.3232,76.2969 334.3232,66.2969" fill="none" style="stroke:#181818;stroke-width:0.5;"/></g><g class="participant participant-tail" data-entity-uid="part3" data-qualified-name="Database" data-source-line="13" id="part3-tail"><text fill="#000000" font-family="Arial" font-size="12" lengthAdjust="spacing" textLength="57.2578" x="284.6943" y="499.998">Database</text><path d="M298.3232,512.8281 C298.3232,502.8281 316.3232,502.8281 316.3232,502.8281 C316.3232,502.8281 334.3232,502.8281 334.3232,512.8281 L334.3232,538.8281 C334.3232,548.8281 316.3232,548.8281 316.3232,548.8281 C316.3232,548.8281 298.3232,548.8281 298.3232,538.8281 L298.3232,512.8281" fill="#E2E2F0" style="stroke:#181818;stroke-width:0.5;"/><path d="M298.3232,512.8281 C298.3232,522.8281 316.3232,522.8281 316.3232,522.8281 C316.3232,522.8281 334.3232,522.8281 334.3232,512.8281" fill="none" style="stroke:#181818;stroke-width:0.5;"/></g><g class="participant participant-head" data-entity-uid="part4" data-qualified-name="BV" data-source-line="14" id="part4-head"><rect fill="#E2E2F0" height="41.9375" rx="2.5" ry="2.5" style="stroke:#C00000;stroke-width:0.5;" width="57.7344" x="403.8115" y="73.3281"/><text fill="#000000" font-family="Arial" font-size="12" lengthAdjust="spacing" textLength="30.1406" x="417.6084" y="91.4668">Bank</text><text fill="#000000" font-family="Arial" font-size="12" lengthAdjust="spacing" textLength="43.7344" x="410.8115" y="105.4355">Verifier</text></g><g class="participant participant-tail" data-entity-uid="part4" data-qualified-name="BV" data-source-line="14" id="part4-tail"><rect fill="#E2E2F0" height="41.9375" rx="2.5" ry="2.5" style="stroke:#C00000;stroke-width:0.5;" width="57.7344" x="403.8115" y="488.8594"/><text fill="#000000" font-family="Arial" font-size="12" lengthAdjust="spacing" textLength="30.1406" x="417.6084" y="506.998">Bank</text><text fill="#000000" font-family="Arial" font-size="12" lengthAdjust="spacing" textLength="43.7344" x="410.8115" y="520.9668">Verifier</text></g><g class="participant participant-head" data-entity-uid="part5" data-qualified-name="NS" data-source-line="15" id="part5-head"><rect fill="#E2E2F0" height="41.9375" rx="2.5" ry="2.5" style="stroke:#C00000;stroke-width:0.5;" width="82.8535" x="471.5459" y="73.3281"/><text fill="#000000" font-family="Arial" font-size="12" lengthAdjust="spacing" textLength="68.8535" x="478.5459" y="91.4668">Notification</text><text fill="#000000" font-family="Arial" font-size="12" lengthAdjust="spacing" textLength="44.3496" x="490.7979" y="105.4355">Service</text></g><g class="participant participant-tail" data-entity-uid="part5" data-qualified-name="NS" data-source-line="15" id="part5-tail"><rect fill="#E2E2F0" height="41.9375" rx="2.5" ry="2.5" style="stroke:#C00000;stroke-width:0.5;" width="82.8535" x="471.5459" y="488.8594"/><text fill="#000000" font-family="Arial" font-size="12" lengthAdjust="spacing" textLength="68.8535" x="478.5459" y="506.998">Notification</text><text fill="#000000" font-family="Arial" font-size="12" lengthAdjust="spacing" textLength="44.3496" x="490.7979" y="520.9668">Service</text></g><g class="message" data-entity-1="part1" data-entity-2="part2" data-source-line="17" id="msg1"><polygon fill="#C00000" points="180.3389,142.2344,190.3389,146.2344,180.3389,150.2344,184.3389,146.2344" style="stroke:#C00000;stroke-width:1;stroke-linejoin:miter;stroke-miterlimit:10;"/><line style="stroke:#C00000;stroke-width:1;" x1="42.6084" x2="186.3389" y1="146.2344" y2="146.2344"/><text fill="#000000" font-family="Arial" font-size="12" lengthAdjust="spacing" textLength="125.7305" x="49.6084" y="141.4043">uploadBankReceipt()</text></g><g class="message" data-entity-1="part2" data-entity-2="part4" data-source-line="18" id="msg2"><polygon fill="#C00000" points="420.6787,170.2031,430.6787,174.2031,420.6787,178.2031,424.6787,174.2031" style="stroke:#C00000;stroke-width:1;stroke-linejoin:miter;stroke-miterlimit:10;"/><line style="stroke:#C00000;stroke-width:1;" x1="192.3389" x2="426.6787" y1="174.2031" y2="174.2031"/><text fill="#000000" font-family="Arial" font-size="12" lengthAdjust="spacing" textLength="101.5195" x="199.3389" y="169.373">parseAndVerify()</text></g><g class="message" data-entity-1="part4" data-entity-2="part3" data-source-line="19" id="msg3"><polygon fill="#C00000" points="327.3232,198.1719,317.3232,202.1719,327.3232,206.1719,323.3232,202.1719" style="stroke:#C00000;stroke-width:1;stroke-linejoin:miter;stroke-miterlimit:10;"/><line style="stroke:#C00000;stroke-width:1;" x1="321.3232" x2="431.6787" y1="202.1719" y2="202.1719"/><text fill="#000000" font-family="Arial" font-size="12" lengthAdjust="spacing" textLength="92.3555" x="333.3232" y="197.3418">checkBalance()</text></g><g class="message" data-entity-1="part3" data-entity-2="part4" data-source-line="20" id="msg4"><polygon fill="#C00000" points="420.6787,226.1406,430.6787,230.1406,420.6787,234.1406,424.6787,230.1406" style="stroke:#C00000;stroke-width:1;stroke-linejoin:miter;stroke-miterlimit:10;"/><line style="stroke:#C00000;stroke-width:1;stroke-dasharray:2,2;" x1="316.3232" x2="426.6787" y1="230.1406" y2="230.1406"/><text fill="#000000" font-family="Arial" font-size="12" lengthAdjust="spacing" textLength="47.2441" x="323.3232" y="225.3105">balance</text></g><g class="message" data-entity-1="part4" data-entity-2="part2" data-source-line="21" id="msg5"><polygon fill="#C00000" points="203.3389,254.1094,193.3389,258.1094,203.3389,262.1094,199.3389,258.1094" style="stroke:#C00000;stroke-width:1;stroke-linejoin:miter;stroke-miterlimit:10;"/><line style="stroke:#C00000;stroke-width:1;stroke-dasharray:2,2;" x1="197.3389" x2="431.6787" y1="258.1094" y2="258.1094"/><text fill="#000000" font-family="Arial" font-size="12" lengthAdjust="spacing" textLength="157.9395" x="209.3389" y="253.2793">verified / review / rejected</text></g><path d="M10,273.1094 L72.9473,273.1094 L72.9473,279.0781 L62.9473,289.0781 L10,289.0781 L10,273.1094" fill="#EEEEEE" style="stroke:#000000;stroke-width:1.5;"/><rect fill="none" height="199.75" style="stroke:#000000;stroke-width:1.5;" width="554.3994" x="10" y="273.1094"/><text fill="#000000" font-family="Arial" font-size="12" font-weight="700" lengthAdjust="spacing" textLength="17.9473" x="25" y="285.248">alt</text><text fill="#000000" font-family="Arial" font-size="12" font-weight="700" lengthAdjust="spacing" textLength="63.0234" x="87.9473" y="286.248">[verified]</text><g class="message" data-entity-1="part2" data-entity-2="part3" data-source-line="24" id="msg6"><polygon fill="#C00000" points="304.3232,305.0469,314.3232,309.0469,304.3232,313.0469,308.3232,309.0469" style="stroke:#C00000;stroke-width:1;stroke-linejoin:miter;stroke-miterlimit:10;"/><line style="stroke:#C00000;stroke-width:1;" x1="192.3389" x2="310.3232" y1="309.0469" y2="309.0469"/><text fill="#000000" font-family="Arial" font-size="12" lengthAdjust="spacing" textLength="90.5273" x="199.3389" y="304.2168">savePayment()</text></g><g class="message" data-entity-1="part2" data-entity-2="part5" data-source-line="25" id="msg7"><polygon fill="#C00000" points="500.9727,333.0156,510.9727,337.0156,500.9727,341.0156,504.9727,337.0156" style="stroke:#C00000;stroke-width:1;stroke-linejoin:miter;stroke-miterlimit:10;"/><line style="stroke:#C00000;stroke-width:1;" x1="192.3389" x2="506.9727" y1="337.0156" y2="337.0156"/><text fill="#000000" font-family="Arial" font-size="12" lengthAdjust="spacing" textLength="63.8086" x="199.3389" y="332.1855">sendSMS()</text></g><g class="message" data-entity-1="part2" data-entity-2="part5" data-source-line="26" id="msg8"><polygon fill="#C00000" points="500.9727,360.9844,510.9727,364.9844,500.9727,368.9844,504.9727,364.9844" style="stroke:#C00000;stroke-width:1;stroke-linejoin:miter;stroke-miterlimit:10;"/><line style="stroke:#C00000;stroke-width:1;" x1="192.3389" x2="506.9727" y1="364.9844" y2="364.9844"/><text fill="#000000" font-family="Arial" font-size="12" lengthAdjust="spacing" textLength="71.5137" x="199.3389" y="360.1543">sendEmail()</text></g><g class="message" data-entity-1="part5" data-entity-2="part1" data-source-line="27" id="msg9"><polygon fill="#C00000" points="53.6084,388.9531,43.6084,392.9531,53.6084,396.9531,49.6084,392.9531" style="stroke:#C00000;stroke-width:1;stroke-linejoin:miter;stroke-miterlimit:10;"/><line style="stroke:#C00000;stroke-width:1;" x1="47.6084" x2="511.9727" y1="392.9531" y2="392.9531"/><text fill="#000000" font-family="Arial" font-size="12" lengthAdjust="spacing" textLength="41.0859" x="59.6084" y="388.123">deliver</text></g><line style="stroke:#000000;stroke-width:1;stroke-dasharray:2,2;" x1="10" x2="564.3994" y1="401.9531" y2="401.9531"/><text fill="#000000" font-family="Arial" font-size="12" font-weight="700" lengthAdjust="spacing" textLength="56.1855" x="15" y="413.0918">[review]</text><g class="message" data-entity-1="part2" data-entity-2="part3" data-source-line="29" id="msg10"><polygon fill="#C00000" points="304.3232,432.8906,314.3232,436.8906,304.3232,440.8906,308.3232,436.8906" style="stroke:#C00000;stroke-width:1;stroke-linejoin:miter;stroke-miterlimit:10;"/><line style="stroke:#C00000;stroke-width:1;" x1="192.3389" x2="310.3232" y1="436.8906" y2="436.8906"/><text fill="#000000" font-family="Arial" font-size="12" lengthAdjust="spacing" textLength="99.9844" x="199.3389" y="432.0605">saveForReview()</text></g><g class="message" data-entity-1="part2" data-entity-2="part1" data-source-line="30" id="msg11"><polygon fill="#C00000" points="53.6084,460.8594,43.6084,464.8594,53.6084,468.8594,49.6084,464.8594" style="stroke:#C00000;stroke-width:1;stroke-linejoin:miter;stroke-miterlimit:10;"/><line style="stroke:#C00000;stroke-width:1;stroke-dasharray:2,2;" x1="47.6084" x2="191.3389" y1="464.8594" y2="464.8594"/><text fill="#000000" font-family="Arial" font-size="12" lengthAdjust="spacing" textLength="105.2461" x="59.6084" y="460.0293">pending approval</text></g><?plantuml-src VPDDJiCm48NtFiK8Dh10_2nP82MbHKWGGGDTiHcSAHtgsC5sKvKLX-24d8H96aegGRCQ-tkPzpnnmfnjXHvB23Cit9Bj2qpH159XGmgQuiB4aRCnmv8WyOpcRvxpEy7fMGy6UbkGrPHuxvOFCzPpIo70QKzoXpwovWfjJ9qlo0-SSHxs1oVDqnFUy9HksD9kLUkq3LNaQ0ZouVtZC1iCuV8wkHedj_3ryTcuausGefrBlIgRnMDb71PAeOxIPQrGrMzCo5SXKgaAZFYCWU2oAxP4UqtF9piXprCclmSO89riIp8N1MgCxEoJpSdNhAbLPhbINRQZYyuGpc7HHciwZqaJL_7WK7LGPEb4968GAB55QxmIBhl2VZAAGiz8prCqA1z6-8OS_RHuNhFspRvxlJvB0SVWgMPQjiKhwKZDk4pSA1J0RwoUTS2QkZ6BSr-KvGqcM-It-NzeM2AR5igMW6v0vt873Okr8hcwNRHT2KREZrlHbb6_OILkpS-0LULTBVTTrkeR?></g></svg>