<svg xmlns="http://www.w3.org/2000/svg" xmlns:xlink="http://www.w3.org/1999/xlink" contentStyleType="text/css" data-diagram-type="SEQUENCE" height="525px" preserveAspectRatio="none" style="width:536px;height:525px;background:#FFFFFF;" version="1.1" viewBox="0 0 536 525" width="536px" zoomAndPan="magnify"><?plantuml 1.2026.6?><defs/><g><g class="title" data-source-line="9"><text fill="#000000" font-family="Arial" font-size="14" font-weight="700" lengthAdjust="spacing" textLength="450.2148" x="39.6255" y="27.9951">SEQUENCE DIAGRAM &#8212; Send Fee Reminder (1-5 Parents)</text></g><rect fill="none" height="183.7813" style="stroke:#000000;stroke-width:1.5;" width="383.1807" x="137.2852" y="217.1719"/><g class="participant-lifeline" data-entity-uid="part1" data-qualified-name="Admin" data-source-line="11" id="part1-lifeline"><g><title>Admin</title><rect fill="#000000" fill-opacity="0.00000" height="329.6563" width="8" x="23.2275" y="116.2656"/><line style="stroke:#181818;stroke-width:0.5;stroke-dasharray:5,5;" x1="27" x2="27" y1="116.2656" y2="445.9219"/></g></g><g class="participant-lifeline" data-entity-uid="part2" data-qualified-name="System" data-source-line="12" id="part2-lifeline"><g><title>System</title><rect fill="#000000" fill-opacity="0.00000" height="329.6563" width="8" x="172.6592" y="116.2656"/><line style="stroke:#181818;stroke-width:0.5;stroke-dasharray:5,5;" x1="176.2852" x2="176.2852" y1="116.2656" y2="445.9219"/></g></g><g class="participant-lifeline" data-entity-uid="part3" data-qualified-name="Database" data-source-line="13" id="part3-lifeline"><g><title>Database</title><rect fill="#000000" fill-opacity="0.00000" height="329.6563" width="8" x="326.7666" y="116.2656"/><line style="stroke:#181818;stroke-width:0.5;stroke-dasharray:5,5;" x1="330.1377" x2="330.1377" y1="116.2656" y2="445.9219"/></g></g><g class="participant-lifeline" data-entity-uid="part4" data-qualified-name="NS" data-source-line="14" id="part4-lifeline"><g><title>Notification</title><rect fill="#000000" fill-opacity="0.00000" height="329.6563" width="8" x="409.8223" y="116.2656"/><line style="stroke:#181818;stroke-width:0.5;stroke-dasharray:5,5;" x1="413.3955" x2="413.3955" y1="116.2656" y2="445.9219"/></g></g><g class="participant-lifeline" data-entity-uid="part5" data-qualified-name="Parent" data-source-line="15" id="part5-lifeline"><g><title>Parent</title><rect fill="#000000" fill-opacity="0.00000" height="329.6563" width="8" x="483.8574" y="116.2656"/><line style="stroke:#181818;stroke-width:0.5;stroke-dasharray:5,5;" x1="487.249" x2="487.249" y1="116.2656" y2="445.9219"/></g></g><g class="participant participant-head" data-entity-uid="part1" data-qualified-name="Admin" data-source-line="11" id="part1-head"><text fill="#000000" font-family="Arial" font-size="12" lengthAdjust="spacing" textLength="38.4551" x="5" y="113.4355">Admin</text><ellipse cx="27.2275" cy="50.7969" fill="#E2E2F0" rx="8" ry="8" style="stroke:#181818;stroke-width:0.5;"/><path d="M27.2275,58.7969 L27.2275,85.7969 M14.2275,66.7969 L40.2275,66.7969 M27.2275,85.7969 L14.2275,100.7969 M27.2275,85.7969 L40.2275,100.7969" fill="none" style="stroke:#181818;stroke-width:0.5;"/></g><g class="participant participant-tail" data-entity-uid="part1" data-qualified-name="Admin" data-source-line="11" id="part1-tail"><text fill="#000000" font-family="Arial" font-size="12" lengthAdjust="spacing" textLength="38.4551" x="5" y="456.0605">Admin</text><ellipse cx="27.2275" cy="467.3906" fill="#E2E2F0" rx="8" ry="8" style="stroke:#181818;stroke-width:0.5;"/><path d="M27.2275,475.3906 L27.2275,502.3906 M14.2275,483.3906 L40.2275,483.3906 M27.2275,502.3906 L14.2275,517.3906 M27.2275,502.3906 L40.2275,517.3906" fill="none" style="stroke:#181818;stroke-width:0.5;"/></g><g class="participant participant-head" data-entity-uid="part2" data-qualified-name="System" data-source-line="12" id="part2-head"><rect fill="#E2E2F0" height="27.9688" rx="2.5" ry="2.5" style="stroke:#C00000;stroke-width:0.5;" width="58.748" x="147.2852" y="87.2969"/><text fill="#000000" font-family="Arial" font-size="12" lengthAdjust="spacing" textLength="44.748" x="154.2852" y="105.4355">System</text></g><g class="participant participant-tail" data-entity-uid="part2" data-qualified-name="System" data-source-line="12" id="part2-tail"><rect fill="#E2E2F0" height="27.9688" rx="2.5" ry="2.5" style="stroke:#C00000;stroke-width:0.5;" width="58.748" x="147.2852" y="444.9219"/><text fill="#000000" font-family="Arial" font-size="12" lengthAdjust="spacing" textLength="44.748" x="154.2852" y="463.0605">System</text></g><g class="participant participant-head" data-entity-uid="part3" data-qualified-name="Database" data-source-line="13" id="part3-head"><text fill="#000000" font-family="Arial" font-size="12" lengthAdjust="spacing" textLength="57.2578" x="299.1377" y="113.4355">Database</text><path d="M312.7666,66.2969 C312.7666,56.2969 330.7666,56.2969 330.7666,56.2969 C330.7666,56.2969 348.7666,56.2969 348.7666,66.2969 L348.7666,92.2969 C348.7666,102.2969 330.7666,102.2969 330.7666,102.2969 C330.7666,102.2969 312.7666,102.2969 312.7666,92.2969 L312.7666,66.2969" fill="#E2E2F0" style="stroke:#181818;stroke-width:0.5;"/><path d="M312.7666,66.2969 C312.7666,76.2969 330.7666,76.2969 330.7666,76.2969 C330.7666,76.2969 348.7666,76.2969 348.7666,66.2969" fill="none" style="stroke:#181818;stroke-width:0.5;"/></g><g class="participant participant-tail" data-entity-uid="part3" data-qualified-name="Database" data-source-line="13" id="part3-tail"><text fill="#000000" font-family="Arial" font-size="12" lengthAdjust="spacing" textLength="57.2578" x="299.1377" y="456.0605">Database</text><path d="M312.7666,468.8906 C312.7666,458.8906 330.7666,458.8906 330.7666,458.8906 C330.7666,458.8906 348.7666,458.8906 348.7666,468.8906 L348.7666,494.8906 C348.7666,504.8906 330.7666,504.8906 330.7666,504.8906 C330.7666,504.8906 312.7666,504.8906 312.7666,494.8906 L312.7666,468.8906" fill="#E2E2F0" style="stroke:#181818;stroke-width:0.5;"/><path d="M312.7666,468.8906 C312.7666,478.8906 330.7666,478.8906 330.7666,478.8906 C330.7666,478.8906 348.7666,478.8906 348.7666,468.8906" fill="none" style="stroke:#181818;stroke-width:0.5;"/></g><g class="participant participant-head" data-entity-uid="part4" data-qualified-name="NS" data-source-line="14" id="part4-head"><rect fill="#E2E2F0" height="41.9375" rx="2.5" ry="2.5" style="stroke:#C00000;stroke-width:0.5;" width="82.8535" x="372.3955" y="73.3281"/><text fill="#000000" font-family="Arial" font-size="12" lengthAdjust="spacing" textLength="68.8535" x="379.3955" y="91.4668">Notification</text><text fill="#000000" font-family="Arial" font-size="12" lengthAdjust="spacing" textLength="44.3496" x="391.6475" y="105.4355">Service</text></g><g class="participant participant-tail" data-entity-uid="part4" data-qualified-name="NS" data-source-line="14" id="part4-tail"><rect fill="#E2E2F0" height="41.9375" rx="2.5" ry="2.5" style="stroke:#C00000;stroke-width:0.5;" width="82.8535" x="372.3955" y="444.9219"/><text fill="#000000" font-family="Arial" font-size="12" lengthAdjust="spacing" textLength="68.8535" x="379.3955" y="463.0605">Notification</text><text fill="#000000" font-family="Arial" font-size="12" lengthAdjust="spacing" textLength="44.3496" x="391.6475" y="477.0293">Service</text></g><g class="participant participant-head" data-entity-uid="part5" data-qualified-name="Parent" data-source-line="15" id="part5-head"><text fill="#000000" font-family="Arial" font-size="12" lengthAdjust="spacing" textLength="39.2168" x="465.249" y="113.4355">Parent</text><ellipse cx="487.8574" cy="50.7969" fill="#E2E2F0" rx="8" ry="8" style="stroke:#181818;stroke-width:0.5;"/><path d="M487.8574,58.7969 L487.8574,85.7969 M474.8574,66.7969 L500.8574,66.7969 M487.8574,85.7969 L474.8574,100.7969 M487.8574,85.7969 L500.8574,100.7969" fill="none" style="stroke:#181818;stroke-width:0.5;"/></g><g class="participant participant-tail" data-entity-uid="part5" data-qualified-name="Parent" data-source-line="15" id="part5-tail"><text fill="#000000" font-family="Arial" font-size="12" lengthAdjust="spacing" textLength="39.2168" x="465.249" y="456.0605">Parent</text><ellipse cx="487.8574" cy="467.3906" fill="#E2E2F0" rx="8" ry="8" style="stroke:#181818;stroke-width:0.5;"/><path d="M487.8574,475.3906 L487.8574,502.3906 M474.8574,483.3906 L500.8574,483.3906 M487.8574,502.3906 L474.8574,517.3906 M487.8574,502.3906 L500.8574,517.3906" fill="none" style="stroke:#181818;stroke-width:0.5;"/></g><g class="message" data-entity-1="part1" data-entity-2="part2" data-source-line="17" id="msg1"><polygon fill="#C00000" points="164.6592,142.2344,174.6592,146.2344,164.6592,150.2344,168.6592,146.2344" style="stroke:#C00000;stroke-width:1;stroke-linejoin:miter;stroke-miterlimit:10;"/><line style="stroke:#C00000;stroke-width:1;" x1="27.2275" x2="170.6592" y1="146.2344" y2="146.2344"/><text fill="#000000" font-family="Arial" font-size="12" lengthAdjust="spacing" textLength="125.4316" x="34.2275" y="141.4043">selectParents(1 to 5)</text></g><g class="message" data-entity-1="part1" data-entity-2="part2" data-source-line="18" id="msg2"><polygon fill="#C00000" points="164.6592,170.2031,174.6592,174.2031,164.6592,178.2031,168.6592,174.2031" style="stroke:#C00000;stroke-width:1;stroke-linejoin:miter;stroke-miterlimit:10;"/><line style="stroke:#C00000;stroke-width:1;" x1="27.2275" x2="170.6592" y1="174.2031" y2="174.2031"/><text fill="#000000" font-family="Arial" font-size="12" lengthAdjust="spacing" textLength="108.6797" x="34.2275" y="169.373">chooseTemplate()</text></g><g class="message" data-entity-1="part1" data-entity-2="part2" data-source-line="19" id="msg3"><polygon fill="#C00000" points="164.6592,198.1719,174.6592,202.1719,164.6592,206.1719,168.6592,202.1719" style="stroke:#C00000;stroke-width:1;stroke-linejoin:miter;stroke-miterlimit:10;"/><line style="stroke:#C00000;stroke-width:1;" x1="27.2275" x2="170.6592" y1="202.1719" y2="202.1719"/><text fill="#000000" font-family="Arial" font-size="12" lengthAdjust="spacing" textLength="96.5039" x="34.2275" y="197.3418">sendReminder()</text></g><path d="M137.2852,217.1719 L211.4766,217.1719 L211.4766,223.1406 L201.4766,233.1406 L137.2852,233.1406 L137.2852,217.1719" fill="#EEEEEE" style="stroke:#000000;stroke-width:1.5;"/><rect fill="none" height="183.7813" style="stroke:#000000;stroke-width:1.5;" width="383.1807" x="137.2852" y="217.1719"/><text fill="#000000" font-family="Arial" font-size="12" font-weight="700" lengthAdjust="spacing" textLength="29.1914" x="152.2852" y="229.3105">loop</text><text fill="#000000" font-family="Arial" font-size="12" font-weight="700" lengthAdjust="spacing" textLength="176.9121" x="226.4766" y="230.3105">[for each selected parent]</text><g class="message" data-entity-1="part2" data-entity-2="part3" data-source-line="22" id="msg4"><polygon fill="#C00000" points="318.7666,249.1094,328.7666,253.1094,318.7666,257.1094,322.7666,253.1094" style="stroke:#C00000;stroke-width:1;stroke-linejoin:miter;stroke-miterlimit:10;"/><line style="stroke:#C00000;stroke-width:1;" x1="176.6592" x2="324.7666" y1="253.1094" y2="253.1094"/><text fill="#000000" font-family="Arial" font-size="12" lengthAdjust="spacing" textLength="130.1074" x="183.6592" y="248.2793">loadStudentBalance()</text></g><g class="message" data-entity-1="part3" data-entity-2="part2" data-source-line="23" id="msg5"><polygon fill="#C00000" points="187.6592,277.0781,177.6592,281.0781,187.6592,285.0781,183.6592,281.0781" style="stroke:#C00000;stroke-width:1;stroke-linejoin:miter;stroke-miterlimit:10;"/><line style="stroke:#C00000;stroke-width:1;stroke-dasharray:2,2;" x1="181.6592" x2="329.7666" y1="281.0781" y2="281.0781"/><text fill="#000000" font-family="Arial" font-size="12" lengthAdjust="spacing" textLength="76.7168" x="193.6592" y="276.248">student data</text></g><g class="message" data-entity-1="part2" data-entity-2="part4" data-source-line="24" id="msg6"><polygon fill="#C00000" points="401.8223,305.0469,411.8223,309.0469,401.8223,313.0469,405.8223,309.0469" style="stroke:#C00000;stroke-width:1;stroke-linejoin:miter;stroke-miterlimit:10;"/><line style="stroke:#C00000;stroke-width:1;" x1="176.6592" x2="407.8223" y1="309.0469" y2="309.0469"/><text fill="#000000" font-family="Arial" font-size="12" lengthAdjust="spacing" textLength="63.8086" x="183.6592" y="304.2168">sendSMS()</text></g><g class="message" data-entity-1="part2" data-entity-2="part4" data-source-line="25" id="msg7"><polygon fill="#C00000" points="401.8223,333.0156,411.8223,337.0156,401.8223,341.0156,405.8223,337.0156" style="stroke:#C00000;stroke-width:1;stroke-linejoin:miter;stroke-miterlimit:10;"/><line style="stroke:#C00000;stroke-width:1;" x1="176.6592" x2="407.8223" y1="337.0156" y2="337.0156"/><text fill="#000000" font-family="Arial" font-size="12" lengthAdjust="spacing" textLength="71.5137" x="183.6592" y="332.1855">sendEmail()</text></g><g class="message" data-entity-1="part4" data-entity-2="part5" data-source-line="26" id="msg8"><polygon fill="#C00000" points="475.8574,360.9844,485.8574,364.9844,475.8574,368.9844,479.8574,364.9844" style="stroke:#C00000;stroke-width:1;stroke-linejoin:miter;stroke-miterlimit:10;"/><line style="stroke:#C00000;stroke-width:1;" x1="413.8223" x2="481.8574" y1="364.9844" y2="364.9844"/><text fill="#000000" font-family="Arial" font-size="12" lengthAdjust="spacing" textLength="41.0859" x="420.8223" y="360.1543">deliver</text></g><g class="message" data-entity-1="part2" data-entity-2="part3" data-source-line="27" id="msg9"><polygon fill="#C00000" points="318.7666,388.9531,328.7666,392.9531,318.7666,396.9531,322.7666,392.9531" style="stroke:#C00000;stroke-width:1;stroke-linejoin:miter;stroke-miterlimit:10;"/><line style="stroke:#C00000;stroke-width:1;" x1="176.6592" x2="324.7666" y1="392.9531" y2="392.9531"/><text fill="#000000" font-family="Arial" font-size="12" lengthAdjust="spacing" textLength="80.25" x="183.6592" y="388.123">logMessage()</text></g><g class="message" data-entity-1="part2" data-entity-2="part1" data-source-line="30" id="msg10"><polygon fill="#C00000" points="38.2275,423.9219,28.2275,427.9219,38.2275,431.9219,34.2275,427.9219" style="stroke:#C00000;stroke-width:1;stroke-linejoin:miter;stroke-miterlimit:10;"/><line style="stroke:#C00000;stroke-width:1;stroke-dasharray:2,2;" x1="32.2275" x2="175.6592" y1="427.9219" y2="427.9219"/><text fill="#000000" font-family="Arial" font-size="12" lengthAdjust="spacing" textLength="88.7227" x="44.2275" y="423.0918">send complete</text></g><?plantuml-src VPB1JXin48RlVeeHN993fAOIbnwGbX2gIcHLCBtrCjYpoGYllRKd83Zr8Vg4F0cJx0OIAMLFrlwV___tsEM1OuSPMoWhzEc9un8Q38LCULSyDRWESfMYrDWIL9an7DSjln1Cl-w9XVwiAJggSavFTojs3v5AWUaUyXEpiECEeroax2dFKaWPJcTVDjyUUCqDNNEapwbjqg5eX2KGsFdDhtazcyFbZ-hxRRM0rx__m5BqS4K4jzHoL5yOJITdcr8KfOoDGITgLNbLJVTH5Unp4MgDHy5xB0INm-80EgcJSCCEXLFy7ItbHtPq0bYWjeDr7sNCDW8cvuCpVDFX1N8oL1bDGHASZOzmRfLIeJjgku12e_5Hg-Xt9rJ0X9GwQ3ITqAs68FBGzLrWjr4jTkTIav3GMrbxHIume5whMi47CJb8x47O3EZ0iBP37xkms_r7f7cB7BQY_bAXdu6AdW8_Klv_m-L2tnSkDytKnvWTfbm_bJu0ND9faP1v0m00?></g></svg>