<svg xmlns="http://www.w3.org/2000/svg" xmlns:xlink="http://www.w3.org/1999/xlink" contentStyleType="text/css" data-diagram-type="CLASS" height="770px" preserveAspectRatio="none" style="width:398px;height:770px;background:#FFFFFF;" version="1.1" viewBox="0 0 398 770" width="398px" zoomAndPan="magnify"><?plantuml 1.2026.6?><defs/><g><g class="title" data-source-line="6"><text fill="#000000" font-family="Arial" font-size="14" font-weight="700" lengthAdjust="spacing" textLength="305.5596" x="42.9492" y="22.9951">ENTITY RELATIONSHIP DIAGRAM (ERD)</text><text fill="#000000" font-family="Arial" font-size="14" font-weight="700" lengthAdjust="spacing" textLength="371.458" x="10" y="39.292">Mbonea Fee Tracking &amp; Receipt System (FTRS)</text></g><!--class super--><g class="entity" data-qualified-name="super" data-source-line="13" id="ent0001"><rect fill="#F1F1F1" height="95.2188" rx="2.5" ry="2.5" style="stroke:#181818;stroke-width:0.5;" width="110.3081" x="113.2056" y="60.5938"/><ellipse cx="128.7224" cy="74.5938" fill="#ADD1B2" rx="9" ry="9" style="stroke:#181818;stroke-width:1;"/><path d="M130.613,78.5938 L125.6286,78.5938 L125.6286,70.5781 L130.613,70.5781 L130.613,71.9688 L127.2067,71.9688 L127.2067,73.7031 L130.3005,73.7031 L130.3005,75.0938 L127.2067,75.0938 L127.2067,77.2031 L130.613,77.2031 L130.613,78.5938 Z " fill="#000000"/><text fill="#000000" font-family="Arial" font-size="11" lengthAdjust="spacing" textLength="76.7153" x="141.2817" y="78.4019">SUPER ADMIN</text><line style="stroke:#181818;stroke-width:0.5;" x1="114.2056" x2="222.5137" y1="88.5938" y2="88.5938"/><g data-visibility-modifier="IE_MANDATORY"><ellipse cx="124.2056" cy="100.4961" fill="#000000" rx="3" ry="3" style="stroke:#000000;stroke-width:1;"/></g><text fill="#000000" font-family="Arial" font-size="11" font-weight="700" lengthAdjust="spacing" textLength="55.5049" x="131.2056" y="102.8042">admin_id</text><text fill="#000000" font-family="Arial" font-size="11" lengthAdjust="spacing" textLength="27.3066" x="190.2071" y="102.8042">&#171;PK&#187;</text><line style="stroke:#181818;stroke-width:1;" x1="114.2056" x2="222.5137" y1="109.3984" y2="109.3984"/><text fill="#000000" font-family="Arial" font-size="11" lengthAdjust="spacing" textLength="31.1953" x="119.2056" y="123.6089">name</text><text fill="#000000" font-family="Arial" font-size="11" lengthAdjust="spacing" textLength="30.3359" x="119.2056" y="136.4136">email</text><text fill="#000000" font-family="Arial" font-size="11" lengthAdjust="spacing" textLength="53.625" x="119.2056" y="149.2183">phone_no</text></g><!--class school--><g class="entity" data-qualified-name="school" data-source-line="21" id="ent0002"><rect fill="#F1F1F1" height="95.2188" rx="2.5" ry="2.5" style="stroke:#181818;stroke-width:0.5;" width="114.8345" x="110.9356" y="215.8138"/><ellipse cx="123.9356" cy="229.8138" fill="#ADD1B2" rx="9" ry="9" style="stroke:#181818;stroke-width:1;"/><path d="M125.8263,233.8138 L120.8419,233.8138 L120.8419,225.7981 L125.8263,225.7981 L125.8263,227.1888 L122.42,227.1888 L122.42,228.9231 L125.5138,228.9231 L125.5138,230.3138 L122.42,230.3138 L122.42,232.4231 L125.8263,232.4231 L125.8263,233.8138 Z " fill="#000000"/><text fill="#000000" font-family="Arial" font-size="11" lengthAdjust="spacing" textLength="86.8345" x="135.9356" y="233.6219">SCHOOL ADMIN</text><line style="stroke:#181818;stroke-width:0.5;" x1="111.9356" x2="224.7701" y1="243.8138" y2="243.8138"/><g data-visibility-modifier="IE_MANDATORY"><ellipse cx="121.9356" cy="255.7161" fill="#000000" rx="3" ry="3" style="stroke:#000000;stroke-width:1;"/></g><text fill="#000000" font-family="Arial" font-size="11" font-weight="700" lengthAdjust="spacing" textLength="55.5049" x="128.9356" y="258.0242">admin_id</text><text fill="#000000" font-family="Arial" font-size="11" lengthAdjust="spacing" textLength="27.3066" x="187.9371" y="258.0242">&#171;PK&#187;</text><line style="stroke:#181818;stroke-width:1;" x1="111.9356" x2="224.7701" y1="264.6184" y2="264.6184"/><text fill="#000000" font-family="Arial" font-size="11" lengthAdjust="spacing" textLength="31.1953" x="116.9356" y="278.8289">name</text><text fill="#000000" font-family="Arial" font-size="11" lengthAdjust="spacing" textLength="30.3359" x="116.9356" y="291.6336">email</text><text fill="#000000" font-family="Arial" font-size="11" lengthAdjust="spacing" textLength="53.625" x="116.9356" y="304.4383">phone_no</text></g><!--class parent--><g class="entity" data-qualified-name="parent" data-source-line="29" id="ent0003"><rect fill="#F1F1F1" height="82.4141" rx="2.5" ry="2.5" style="stroke:#181818;stroke-width:0.5;" width="113.2192" x="260.7456" y="222.2138"/><ellipse cx="292.4296" cy="236.2138" fill="#ADD1B2" rx="9" ry="9" style="stroke:#181818;stroke-width:1;"/><path d="M294.3203,240.2138 L289.3359,240.2138 L289.3359,232.1981 L294.3203,232.1981 L294.3203,233.5888 L290.914,233.5888 L290.914,235.3231 L294.0078,235.3231 L294.0078,236.7138 L290.914,236.7138 L290.914,238.8231 L294.3203,238.8231 L294.3203,240.2138 Z " fill="#000000"/><text fill="#000000" font-family="Arial" font-size="11" lengthAdjust="spacing" textLength="43.6992" x="308.5816" y="240.0219">PARENT</text><line style="stroke:#181818;stroke-width:0.5;" x1="261.7456" x2="372.9649" y1="250.2138" y2="250.2138"/><g data-visibility-modifier="IE_MANDATORY"><ellipse cx="271.7456" cy="262.1161" fill="#000000" rx="3" ry="3" style="stroke:#000000;stroke-width:1;"/></g><text fill="#000000" font-family="Arial" font-size="11" font-weight="700" lengthAdjust="spacing" textLength="58.416" x="278.7456" y="264.4242">parent_id</text><text fill="#000000" font-family="Arial" font-size="11" lengthAdjust="spacing" textLength="27.3066" x="340.6582" y="264.4242">&#171;PK&#187;</text><line style="stroke:#181818;stroke-width:1;" x1="261.7456" x2="372.9649" y1="271.0184" y2="271.0184"/><text fill="#000000" font-family="Arial" font-size="11" lengthAdjust="spacing" textLength="82.8545" x="266.7456" y="285.2289">phone_number</text><text fill="#000000" font-family="Arial" font-size="11" lengthAdjust="spacing" textLength="30.3359" x="266.7456" y="298.0336">email</text></g><!--class student--><g class="entity" data-qualified-name="student" data-source-line="36" id="ent0004"><rect fill="#F1F1F1" height="108.0234" rx="2.5" ry="2.5" style="stroke:#181818;stroke-width:0.5;" width="96.4507" x="144.1356" y="371.0338"/><ellipse cx="164.4839" cy="385.0338" fill="#ADD1B2" rx="9" ry="9" style="stroke:#181818;stroke-width:1;"/><path d="M166.3746,389.0338 L161.3902,389.0338 L161.3902,381.0181 L166.3746,381.0181 L166.3746,382.4088 L162.9683,382.4088 L162.9683,384.1431 L166.0621,384.1431 L166.0621,385.5338 L162.9683,385.5338 L162.9683,387.6431 L166.3746,387.6431 L166.3746,389.0338 Z " fill="#000000"/><text fill="#000000" font-family="Arial" font-size="11" lengthAdjust="spacing" textLength="52.1211" x="178.1169" y="388.8419">STUDENT</text><line style="stroke:#181818;stroke-width:0.5;" x1="145.1356" x2="239.5863" y1="399.0338" y2="399.0338"/><g data-visibility-modifier="IE_MANDATORY"><ellipse cx="155.1356" cy="410.9361" fill="#000000" rx="3" ry="3" style="stroke:#000000;stroke-width:1;"/></g><text fill="#000000" font-family="Arial" font-size="11" font-weight="700" lengthAdjust="spacing" textLength="41.6475" x="162.1356" y="413.2442">reg_no</text><text fill="#000000" font-family="Arial" font-size="11" lengthAdjust="spacing" textLength="27.3066" x="207.2797" y="413.2442">&#171;PK&#187;</text><line style="stroke:#181818;stroke-width:1;" x1="145.1356" x2="239.5863" y1="419.8384" y2="419.8384"/><text fill="#000000" font-family="Arial" font-size="11" lengthAdjust="spacing" textLength="31.1953" x="150.1356" y="434.0489">name</text><text fill="#000000" font-family="Arial" font-size="11" lengthAdjust="spacing" textLength="64.002" x="150.1356" y="446.8536">class_name</text><text fill="#000000" font-family="Arial" font-size="11" lengthAdjust="spacing" textLength="43.3071" x="150.1356" y="459.6583">balance</text><text fill="#000000" font-family="Arial" font-size="11" lengthAdjust="spacing" textLength="82.3335" x="150.1356" y="472.4629">parent_id &#171;FK&#187;</text></g><!--class payment--><g class="entity" data-qualified-name="payment" data-source-line="45" id="ent0005"><rect fill="#F1F1F1" height="120.8281" rx="2.5" ry="2.5" style="stroke:#181818;stroke-width:0.5;" width="126.4268" x="254.1456" y="539.0538"/><ellipse cx="287.9179" cy="553.0538" fill="#ADD1B2" rx="9" ry="9" style="stroke:#181818;stroke-width:1;"/><path d="M289.8085,557.0538 L284.8242,557.0538 L284.8242,549.0381 L289.8085,549.0381 L289.8085,550.4288 L286.4023,550.4288 L286.4023,552.1631 L289.496,552.1631 L289.496,553.5538 L286.4023,553.5538 L286.4023,555.6631 L289.8085,555.6631 L289.8085,557.0538 Z " fill="#000000"/><text fill="#000000" font-family="Arial" font-size="11" lengthAdjust="spacing" textLength="52.2661" x="304.534" y="556.8619">PAYMENT</text><line style="stroke:#181818;stroke-width:0.5;" x1="255.1456" x2="379.5724" y1="567.0538" y2="567.0538"/><g data-visibility-modifier="IE_MANDATORY"><ellipse cx="265.1456" cy="578.9561" fill="#000000" rx="3" ry="3" style="stroke:#000000;stroke-width:1;"/></g><text fill="#000000" font-family="Arial" font-size="11" font-weight="700" lengthAdjust="spacing" textLength="71.6235" x="272.1456" y="581.2642">payment_id</text><text fill="#000000" font-family="Arial" font-size="11" lengthAdjust="spacing" textLength="27.3066" x="347.2657" y="581.2642">&#171;PK&#187;</text><line style="stroke:#181818;stroke-width:1;" x1="255.1456" x2="379.5724" y1="587.8584" y2="587.8584"/><text fill="#000000" font-family="Arial" font-size="11" lengthAdjust="spacing" textLength="67.9712" x="260.1456" y="602.0689">reg_no &#171;FK&#187;</text><text fill="#000000" font-family="Arial" font-size="11" lengthAdjust="spacing" textLength="42.4424" x="260.1456" y="614.8736">amount</text><text fill="#000000" font-family="Arial" font-size="11" lengthAdjust="spacing" textLength="71.7041" x="260.1456" y="627.6783">amount_paid</text><text fill="#000000" font-family="Arial" font-size="11" lengthAdjust="spacing" textLength="33.8003" x="260.1456" y="640.4829">status</text><text fill="#000000" font-family="Arial" font-size="11" lengthAdjust="spacing" textLength="51.0254" x="260.1456" y="653.2876">due_date</text></g><!--class notif--><g class="entity" data-qualified-name="notif" data-source-line="55" id="ent0006"><rect fill="#F1F1F1" height="108.0234" rx="2.5" ry="2.5" style="stroke:#181818;stroke-width:0.5;" width="143.2813" x="75.7156" y="545.4538"/><ellipse cx="105.2775" cy="559.4538" fill="#ADD1B2" rx="9" ry="9" style="stroke:#181818;stroke-width:1;"/><path d="M107.1681,563.4538 L102.1838,563.4538 L102.1838,555.4381 L107.1681,555.4381 L107.1681,556.8288 L103.7619,556.8288 L103.7619,558.5631 L106.8556,558.5631 L106.8556,559.9538 L103.7619,559.9538 L103.7619,562.0631 L107.1681,562.0631 L107.1681,563.4538 Z " fill="#000000"/><text fill="#000000" font-family="Arial" font-size="11" lengthAdjust="spacing" textLength="78.4771" x="120.9579" y="563.2619">NOTIFICATION</text><line style="stroke:#181818;stroke-width:0.5;" x1="76.7156" x2="217.9969" y1="573.4538" y2="573.4538"/><g data-visibility-modifier="IE_MANDATORY"><ellipse cx="86.7156" cy="585.3561" fill="#000000" rx="3" ry="3" style="stroke:#000000;stroke-width:1;"/></g><text fill="#000000" font-family="Arial" font-size="11" font-weight="700" lengthAdjust="spacing" textLength="88.478" x="93.7156" y="587.6642">notification_id</text><text fill="#000000" font-family="Arial" font-size="11" lengthAdjust="spacing" textLength="27.3066" x="185.6902" y="587.6642">&#171;PK&#187;</text><line style="stroke:#181818;stroke-width:1;" x1="76.7156" x2="217.9969" y1="594.2584" y2="594.2584"/><text fill="#000000" font-family="Arial" font-size="11" lengthAdjust="spacing" textLength="67.9712" x="81.7156" y="608.4689">reg_no &#171;FK&#187;</text><text fill="#000000" font-family="Arial" font-size="11" lengthAdjust="spacing" textLength="49.4355" x="81.7156" y="621.2736">message</text><text fill="#000000" font-family="Arial" font-size="11" lengthAdjust="spacing" textLength="43.5273" x="81.7156" y="634.0783">channel</text><text fill="#000000" font-family="Arial" font-size="11" lengthAdjust="spacing" textLength="33.8003" x="81.7156" y="646.8829">status</text></g><g class="entity" data-qualified-name="GMN13" data-source-line="72" id="ent0014"><path d="M8.8856,719.8838 L8.8856,755.4931 A0,0 0 0 0 8.8856,755.4931 L285.829,755.4931 A0,0 0 0 0 285.829,755.4931 L285.829,729.8838 L275.829,719.8838 L151.3556,719.8838 L147.3556,653.7038 L143.3556,719.8838 L8.8856,719.8838 A0,0 0 0 0 8.8856,719.8838" fill="#FEFFDD" style="stroke:#181818;stroke-width:0.5;"/><path d="M275.829,719.8838 L275.829,729.8838 L285.829,729.8838 L275.829,719.8838" fill="#FEFFDD" style="stroke:#181818;stroke-width:0.5;"/><text fill="#000000" font-family="Arial" font-size="11" font-weight="700" lengthAdjust="spacing" textLength="49.9082" x="14.8856" y="735.0942">Legend:</text><text fill="#000000" font-family="Arial" font-size="11" lengthAdjust="spacing" textLength="202.5386" x="68.2904" y="735.0942">PK = Primary Key | FK = Foreign Key</text><text fill="#000000" font-family="Arial" font-size="11" lengthAdjust="spacing" textLength="110.4565" x="14.8856" y="747.8989">1 = One | N = Many</text></g><!--link super to school--><g class="link" data-entity-1="ent0001" data-entity-2="ent0002" data-link-type="crowfoot" data-source-line="64" id="lnk7"><path codeLine="64" d="M168.3556,164.0437 C168.3556,182.9237 168.3556,178.5838 168.3556,197.4738" fill="none" id="super-school" style="stroke:#181818;stroke-width:1;"/><line style="stroke:#181818;stroke-width:1;" x1="164.3556" x2="172.3556" y1="160.0437" y2="160.0437"/><line style="stroke:#181818;stroke-width:1;" x1="164.3556" x2="172.3556" y1="163.0437" y2="163.0437"/><line style="stroke:#181818;stroke-width:1;" x1="168.3556" x2="168.3556" y1="164.0437" y2="156.0437"/><line style="stroke:#181818;stroke-width:1;" x1="168.3556" x2="174.3556" y1="207.4738" y2="215.4738"/><line style="stroke:#181818;stroke-width:1;" x1="168.3556" x2="162.3556" y1="207.4738" y2="215.4738"/><line style="stroke:#181818;stroke-width:1;" x1="168.3556" x2="168.3556" y1="207.4738" y2="215.4738"/><ellipse cx="168.3556" cy="201.4738" fill="none" rx="4" ry="4" style="stroke:#181818;stroke-width:1;"/><text fill="#000000" font-family="Arial" font-size="11" lengthAdjust="spacing" textLength="50.6494" x="117.3556" y="182.9742">manages</text></g><!--link school to student--><g class="link" data-entity-1="ent0002" data-entity-2="ent0004" data-link-type="crowfoot" data-source-line="65" id="lnk8"><path codeLine="65" d="M184.9556,319.4738 C184.9556,338.0837 184.9556,333.4838 184.9556,352.6538" fill="none" id="school-student" style="stroke:#181818;stroke-width:1;"/><line style="stroke:#181818;stroke-width:1;" x1="180.9556" x2="188.9556" y1="315.4738" y2="315.4738"/><line style="stroke:#181818;stroke-width:1;" x1="180.9556" x2="188.9556" y1="318.4738" y2="318.4738"/><line style="stroke:#181818;stroke-width:1;" x1="184.9556" x2="184.9556" y1="319.4738" y2="311.4738"/><line style="stroke:#181818;stroke-width:1;" x1="184.9556" x2="190.9556" y1="362.6538" y2="370.6538"/><line style="stroke:#181818;stroke-width:1;" x1="184.9556" x2="178.9556" y1="362.6538" y2="370.6538"/><line style="stroke:#181818;stroke-width:1;" x1="184.9556" x2="184.9556" y1="362.6538" y2="370.6538"/><ellipse cx="184.9556" cy="356.6538" fill="none" rx="4" ry="4" style="stroke:#181818;stroke-width:1;"/><text fill="#000000" font-family="Arial" font-size="11" lengthAdjust="spacing" textLength="48.3936" x="135.9556" y="338.2742">registers</text></g><!--link parent to student--><g class="link" data-entity-1="ent0003" data-entity-2="ent0004" data-link-type="crowfoot" data-source-line="66" id="lnk9"><path codeLine="66" d="M252.2756,263.4938 C237.2656,263.4938 233.1756,263.4938 233.1756,263.4938 C233.1756,263.4938 233.1756,305.8738 233.1756,352.8038" fill="none" id="parent-student" style="stroke:#181818;stroke-width:1;"/><line style="stroke:#181818;stroke-width:1;" x1="256.2756" x2="256.2756" y1="259.4938" y2="267.4938"/><line style="stroke:#181818;stroke-width:1;" x1="253.2756" x2="253.2756" y1="259.4938" y2="267.4938"/><line style="stroke:#181818;stroke-width:1;" x1="252.2756" x2="260.2756" y1="263.4938" y2="263.4938"/><line style="stroke:#181818;stroke-width:1;" x1="233.1756" x2="239.1756" y1="362.8038" y2="370.8038"/><line style="stroke:#181818;stroke-width:1;" x1="233.1756" x2="227.1756" y1="362.8038" y2="370.8038"/><line style="stroke:#181818;stroke-width:1;" x1="233.1756" x2="233.1756" y1="362.8038" y2="370.8038"/><ellipse cx="233.1756" cy="356.8038" fill="none" rx="4" ry="4" style="stroke:#181818;stroke-width:1;"/><text fill="#000000" font-family="Arial" font-size="11" lengthAdjust="spacing" textLength="19.4434" x="234.1756" y="300.8042">has</text></g><!--link parent to payment--><g class="link" data-entity-1="ent0003" data-entity-2="ent0005" data-link-type="crowfoot" data-source-line="67" id="lnk10"><path codeLine="67" d="M317.3556,312.9638 C317.3556,371.6138 317.3556,453.0737 317.3556,520.7038" fill="none" id="parent-payment" style="stroke:#181818;stroke-width:1;"/><line style="stroke:#181818;stroke-width:1;" x1="313.3556" x2="321.3556" y1="308.9638" y2="308.9638"/><line style="stroke:#181818;stroke-width:1;" x1="313.3556" x2="321.3556" y1="311.9638" y2="311.9638"/><line style="stroke:#181818;stroke-width:1;" x1="317.3556" x2="317.3556" y1="312.9638" y2="304.9638"/><line style="stroke:#181818;stroke-width:1;" x1="317.3556" x2="323.3556" y1="530.7038" y2="538.7038"/><line style="stroke:#181818;stroke-width:1;" x1="317.3556" x2="311.3556" y1="530.7038" y2="538.7038"/><line style="stroke:#181818;stroke-width:1;" x1="317.3556" x2="317.3556" y1="530.7038" y2="538.7038"/><ellipse cx="317.3556" cy="524.7038" fill="none" rx="4" ry="4" style="stroke:#181818;stroke-width:1;"/><text fill="#000000" font-family="Arial" font-size="11" lengthAdjust="spacing" textLength="36.3247" x="280.3556" y="419.0442">makes</text></g><!--link student to payment--><g class="link" data-entity-1="ent0004" data-entity-2="ent0005" data-link-type="crowfoot" data-source-line="68" id="lnk11"><path codeLine="68" d="M229.7856,487.2838 C229.7856,538.4938 229.7856,599.4938 229.7856,599.4938 C229.7856,599.4938 222.1356,599.4938 235.7156,599.4938" fill="none" id="student-payment" style="stroke:#181818;stroke-width:1;"/><line style="stroke:#181818;stroke-width:1;" x1="225.7856" x2="233.7856" y1="483.2838" y2="483.2838"/><line style="stroke:#181818;stroke-width:1;" x1="225.7856" x2="233.7856" y1="486.2838" y2="486.2838"/><line style="stroke:#181818;stroke-width:1;" x1="229.7856" x2="229.7856" y1="487.2838" y2="479.2838"/><line style="stroke:#181818;stroke-width:1;" x1="245.7156" x2="253.7156" y1="599.4938" y2="593.4938"/><line style="stroke:#181818;stroke-width:1;" x1="245.7156" x2="253.7156" y1="599.4938" y2="605.4938"/><line style="stroke:#181818;stroke-width:1;" x1="245.7156" x2="253.7156" y1="599.4938" y2="599.4938"/><ellipse cx="239.7156" cy="599.4938" fill="none" rx="4" ry="4" style="stroke:#181818;stroke-width:1;"/><text fill="#000000" font-family="Arial" font-size="11" lengthAdjust="spacing" textLength="46.1699" x="206.7856" y="562.5642">receives</text></g><!--link student to notif--><g class="link" data-entity-1="ent0004" data-entity-2="ent0006" data-link-type="crowfoot" data-source-line="69" id="lnk12"><path codeLine="69" d="M181.5656,487.2737 C181.5656,508.1838 181.5656,506.0438 181.5656,526.9738" fill="none" id="student-notif" style="stroke:#181818;stroke-width:1;"/><line style="stroke:#181818;stroke-width:1;" x1="177.5656" x2="185.5656" y1="483.2737" y2="483.2737"/><line style="stroke:#181818;stroke-width:1;" x1="177.5656" x2="185.5656" y1="486.2737" y2="486.2737"/><line style="stroke:#181818;stroke-width:1;" x1="181.5656" x2="181.5656" y1="487.2737" y2="479.2737"/><line style="stroke:#181818;stroke-width:1;" x1="181.5656" x2="187.5656" y1="536.9738" y2="544.9738"/><line style="stroke:#181818;stroke-width:1;" x1="181.5656" x2="175.5656" y1="536.9738" y2="544.9738"/><line style="stroke:#181818;stroke-width:1;" x1="181.5656" x2="181.5656" y1="536.9738" y2="544.9738"/><ellipse cx="181.5656" cy="530.9738" fill="none" rx="4" ry="4" style="stroke:#181818;stroke-width:1;"/><text fill="#000000" font-family="Arial" font-size="11" lengthAdjust="spacing" textLength="46.1699" x="134.5656" y="509.3342">receives</text></g><?plantuml-src hLDDQzj04BthLmmfbCHWgAyc3QYsrGX_8Yk7GC6ChR6rMDeLkwi6DUb_pwmiEtBjGW_LGTfvi_FUxDkHsGjPeCOSJ8g9UX5o1rlC37dcb4beYsLc0oNj37C2NmlChkUNuXT1hzTAPaAIhGe2fMsgFCyAcn6CPd4OFqCqclXnE9yj7yC534F_U-HFuNOK3Uz-oEbQIK88Y23MkDcxpZv3H1iIXOLbPIpbS1l4qVBEQ-cHP8KANZs0RrorqwgKoK1bIiDBAYmvNEc4z07xDFZY7k-tvpMLDykdnIW2VpWDPpU01anPaAu9Ez3fO98BkH99fmFtzulnmmFZtIw_95l37yfHPFmjKcv_9TKPy-1nFf-qgJUfKjb_uLxu4PjQix8HZ9vO3-4rseQdpDUaJ_JjVkEduP7Ks39fishQSGT_wtIJeJ6h9bXZXdBZLgTMk2fmLMS7U9v-dA3ApuzGnzVESEZZo0U0EL-uFIrM1Og48sFHbeONIKch17aEMjApUHm6uQ0UnLfVAYks9_Kw4XkqGib_QI4dOt1Nsv2Yb9HzwBFeOPpUthfTzNeSW3xaABd4U0rmJ3Uczvs6u8dNncjkzs97Yd_cZYuwzhtZRlPUfBNxgNvUxZZOqCfxZ12ibRKgT-Pq9hGZcVJPaiKOli92Ynnr1MEgu0q21mLAazX91t55Zv6v94xEU3L5MV4b94w8l7S0?></g></svg>